<mxfile host="app.diagrams.net" modified="2023-02-23T16:53:19.652Z" agent="5.0 (Windows NT 10.0; Win64; x64) AppleWebKit/537.36 (KHTML, like Gecko) Chrome/110.0.0.0 Safari/537.36" etag="Noy6QUlj73zaKtkMU6sd" version="20.8.23" type="github">
  <diagram name="Page-1" id="ZE2EUwixTvWk9dTs9JL3">
    <mxGraphModel dx="1434" dy="834" grid="1" gridSize="10" guides="1" tooltips="1" connect="1" arrows="1" fold="1" page="1" pageScale="1" pageWidth="850" pageHeight="1100" math="0" shadow="0">
      <root>
        <mxCell id="0" />
        <mxCell id="1" parent="0" />
        <mxCell id="LuRM1TjAb78F55fPcYja-31" value="" style="shape=stencil(lVnZchMxEPwav07pHEnPHP+RKgJxERIqhOvvmcWlxWpZbfy2caZXc/Rc2kN88+3h7uv9Ibhvry/Pn+9/Hj+8Phzi20MIx6eH+5fjqz0d4rtDfPPx+eX+08vz96cPp7+/3m2S29OX5x/bG36dcClL1Q0V3O/TL16l1b+/vD8BHo9P54AkLo+AJNURgJMaR0AUX9aAWMXVERDENwJIEkElL8GvAaFJDSPASQkEkEQrnuCIDb5JmmxQcoI5MfsRkCmgYdyCE0/ks5RRoaDiEzFZNA3yMYoyiyWMUU6hu2Ahr22Qz14a0d9o5wZ59fT9RdooXyzEhKZGSiBRaZ3plx3kJIweqiqRsa5KGk9oxmtyQiySxxg3lcBys2ButiqZGJ1V1COgklRTo1EZAUU0kjAkSWMcGi8Xdc/1HeAkE5VqlTbaUFPPjcuZE6WNVC3maBIHMzGMJ6idSVQyJ0Ky5UbriwF0DFze2bVSCdJhK7NMpSgF8tkczeJQsWyH3W+rwGUoqtojc5kaGclnRTURlczrcSRfkUg0Uoc1IPFssBIwWhC60y6nm4obfeqlsHy2ZET5QPS3CEFN9eJZgTGeFpCPpFyYvJvkSeJYx6gV9SecM/mC9nr+fkV5x+ydqtc+avzn+11Pu6X+EeQTtxf84zphl/5XkKf+tPhO8vz90HAcb1B7KT+zl+SLyRfUJ7ORomBJ4S15k8d4Vc7nMrYO3x28tHfiM/cPVrheMFbyEfP3Ch/8TfJWXzFfqD6KbemKvdonvv/056V85PmiAeQL16e4ww1805lvV/js8P1X8gVGlav5eJP8Vv8xfx3R3/rLVN/YSmD9K6D/lcTX+qMiP5m87u1nnzkkEXvVBu7x/TZQE/4UlQT6GCHIATVOW5nSDKit7yRnQxCjkA23AIiezhA2+UEMEl9FW8Mms42KBOCdQ1rbNEpnxYpxs8hENiCnPg7vg1ntpWzlV+gcNVMq2XAJqdw8zX3bO2DFb7l3k9Vm02DZqr39r3Yn2M7OPL3KN5iHLJiZNDRbAB2sZ4UugFtHg+UpimPksMCO3KilJ+FlQOgKnK3JSlJosrl4uncE7OFWRVg+OJxxtnsEUgOmZEiBNk2PJSNGOqSlru1eMXLnyWVmS4O7q0aHcB+lwtaUetBXIcbrNE/X3W1LGgGtzxmr2zTMHLqwx4Rt3Mo2o8S2N033ewyQfJ/Tz28Q2SaXxTV0quOrX7upk6Rp1jcAq6kG8B4BbPvYAAEBymwok9Hak28JmE5gVwJJ8WrGF3qnluYJtfDATSOkAQKvwUknALchtAnAIq3TFF/ofbeRD7m0R2YFuPHO/jrAHv59Ivh4fHw8fWE4/z9+UrCfTp8j4rs/);lineShape=1;sketch=1;hachureGap=4;jiggle=2;curveFitting=1;fontFamily=Architects Daughter;fontSource=https%3A%2F%2Ffonts.googleapis.com%2Fcss%3Ffamily%3DArchitects%2BDaughter;fontSize=20;" vertex="1" parent="1">
          <mxGeometry x="360.4914520684881" y="114.07902881787788" width="80.8002756499734" height="89.90344976089352" as="geometry" />
        </mxCell>
        <mxCell id="LuRM1TjAb78F55fPcYja-32" value="" style="shape=stencil(rVfbbhpBDP0aXi2P5/6cpv8RKaSgUogI6eXv6+1qYMcDh0Tq27Ice305x55Z+Ye3zdPreiX8djoevq9/bZ9Pm5X/shLZ7jfr4/akTyv/uPIPL4fj+tvx8L5/nn+/Pk3I6enH4efk4fdsVysVP1kJ/5nfOOL478XXGb/b7pf4RDl3eE9FAF6Ie/+FUr6NL5ly7eMRqgkYCAn3BoWiv22QI5XSGUgkASEljTj2KWtIFRhwS7EZBEeBbxtE1/w1g8gtq6sGwRNLb1DJgbb5QL6vUsowB0nEfQ45kQeNdplKX6USKCFmUOjxSpUM+iYU+hopdVNAeAkWXxxIgCpbfAXxOBuPYyYGTXO2otMHQAsGFk14UFAmPyScoX/nhoJC/zwUKGC8t3gBDWArZMUz9B96HddCBeiYLUEVnwHetamwxENCpDrggSZl4IPGDwntBzyUMMVk6+lAvtK6v8D7Av1Hi48Qf4WfYLKLnXET/6G+0sC3CuJxjY0fFbASaJwQoMFK0HECgQZza89SkCABvlKgAAXPg+AF+ndDQfk/4jM5U08hBwjholW8rhhGDPJWkrr8EeW8axN2sSYD0HzgtoPOi1hPH6AHQVvaJx3wGlN/0stMv1lADimR9DnocSUAg+zbGD8fiAIcdLm2uXZWToZCKNGePvRQh0ZLqXa5FmJQ1RqGnOGoq9nuGobxKD5YvICmKd7sbtUGOgtlewBUrSL/xc5SPLmmTWTjh/jaPv/BeHRTpM/kW+2svlPP4ZZyp1+13Rku+Aj8Lyb/xSDjBIYPFETQz16z7uL14XKne9nudvOVcPm/vQPqq/n+6B//Ag==);lineShape=1;sketch=1;hachureGap=4;jiggle=2;curveFitting=1;fontFamily=Architects Daughter;fontSource=https%3A%2F%2Ffonts.googleapis.com%2Fcss%3Ffamily%3DArchitects%2BDaughter;fontSize=20;" vertex="1" parent="1">
          <mxGeometry x="347.46231088737454" y="200.43801179662546" width="38.10372333647547" height="78.54338229712698" as="geometry" />
        </mxCell>
        <mxCell id="LuRM1TjAb78F55fPcYja-33" value="" style="shape=stencil(lVjbUhsxDP2avGpsyxf5mbb/wQyhZEoJA/T295WbMUFy9lDeNhudte468o6vnu+uH/e7FJ5fno7f9r8ONy93O/60S+nwcLd/Orzo044/7/jq9vi0//p0/PFwc/r9eD0kx9P348/xhd8nnCTiOFAp/Dm9SUyp/Hvz5QS4Pzy8ATSh2i0gUc8AEKkmD4hhG1AL9WoBkQpvA0qnKB6QBAAi5eUEASfkRFK9l0rdBjBTc16q0EspU7cATtOqi4DYKAcLUDc0AIgULCA3GIfiA10KNWQCsY1zzVSQBVTZyDf1cgRBoGT1lwCj3KnamEml+o5HrcE9UgNZcQ7pK6BQAB7i5kuhawgSMLkTNw9ANlRNfKdShUFQnwd3AlMH9a9Ob/YEUSXBCaJutR1GmAJwa18SqRXKwK3qdVdstc5qugxoJNaGIhRAHLoQF1s7QgKKTU9I1q1anQ2plL1KrKEE1dDXHsazoLbiUKxKmvAM6l9Hg2tJMZCgXFK3Wi9p3NAoYYq2A6RZ4lu52m1iROo4t1t18qh4VL6Kk2eQFUPeOijgSaj6iJMvICeGvcXJJyTPcwCc5QOWz+zlkf91qAUvDzKu8ao/GmktU/TyGX0/z/5/lm9gKKs8W3vjTMBN+eDkC/JP9jwkzqLe9I8jCXAgD/8XJ59AExrxdbwI57Myv+S/j+o3zfI7ywekj85370/UE0e9eHk0By7V7zv6uFEW5oGb+vt8Q5NP/Rl8f4i4H7LPfzSVVL5GLw9GhsqL7w+IfXxYXpYZBvubaL3Y/twne7ksL5Okv8a3zI66xSScAZqhGURYyRLbCHOYMdkiBt2GQOd8BjGIISw0vEPS2PWDtiqVrCBaOriHdVMVmHfK+IrNO53kaBDIQoc0lGjySfSdV+lLwa2FXWpUmBtKfJ1KIzTAhkGtHZkIePwpe2e3H3Q4n3Q/KI6MY8YVqyeyGho0QXQXdyuRTFa4saJ57v4amIvyS66Olgk6QPANoPJ0wcZK5whIyTN3N1Y6sf7JBZanOtStdBrEBAxQjdi1MNyDeenZ+okKQpDTch2CiX6JfgeMHdLq0n39R7ys6Lbk5pSeAImjzu1FpYong78OCbOYtnYPtzQqAJ2ggJoXADBaAbIABDU9nonwBoC2TAXE5ZYJzjflXx+6+FKAI6jvMM5xwnJ5F0G2ykoJE+www+joAejWSJYlZ9wnohOWrS4xpPEKcG04MWwCH74T/Q+APpyvYG8P9/enG9y3//srW311uu7lz38B);lineShape=1;sketch=1;hachureGap=4;jiggle=2;curveFitting=1;fontFamily=Architects Daughter;fontSource=https%3A%2F%2Ffonts.googleapis.com%2Fcss%3Ffamily%3DArchitects%2BDaughter;fontSize=20;" vertex="1" parent="1">
          <mxGeometry x="295.34961974288103" y="274.569010911242" width="60.28204124010699" height="43.00240203031649" as="geometry" />
        </mxCell>
        <mxCell id="LuRM1TjAb78F55fPcYja-34" value="" style="shape=stencil(lZfbchshDIafZm81IECI6zR9j8zEqXfq2hnHbZO3L9vt2ouwfzd3e9CHzgKG8PC2fXrdDOzeTsfD983v8fm0HcKXgXncbzfH8VSfhvA4hIeXw3Hz7Xj4uX+e31+fJsnp6cfh17TC+8wFKmGC2H3MHxyJ/v3wdRbfjfuVeCKnjXikkm+Le085NfI+wvV9oegboFqY/G2AKxAbIESKwKToKLceR6HAwGUmdQ2QlGK6DUgibn3IDmrQ+ruNkgbSchsoTEUaoERiYFIplEsLFHIgrPX3v7yuAL4DqAVigIB6C0iEQOxMUmyScxYoSEPNaxtW79yyxnUiL3laq0CZyxSkA5ATQoUtkEF9V0A6ICGThGLnQwA9WoGULOAFAtnUhi4FfCtKXiygOA/SARkBSswWEGSSXvFBUFhrv5TOJAxIBxTc1GZ2T3kA9b2q5nWqkdflSn0nVH3ViU5Dxhp819UFZ0666oMtp3bP+o+uTl1g4eDI5DqbFA0/WapzPfxQrj8L6HlKrLYIBZtQrj3XatC6kQJAvJ1MdZtDGmI3wOtGisIaumFZt2rUQizkWpPqYaCAPPhkW2g6EIFy1aXBzrWUltRfV0BsXCYP7On6s0YUBMgte/jq8AaMcYvui3gEc747leBTzPngeBH36KRHLhtxB8UTW3FgDPeBRB3PtjLvrV5s3B0oy0DBGsPAmEBiVw+oS5ZJcxFPcPVPHfjviteHy93iZdzt5qvJ+r+9i9RP8z0mPP4B);lineShape=1;sketch=1;hachureGap=4;jiggle=2;curveFitting=1;fontFamily=Architects Daughter;fontSource=https%3A%2F%2Ffonts.googleapis.com%2Fcss%3Ffamily%3DArchitects%2BDaughter;fontSize=20;" vertex="1" parent="1">
          <mxGeometry x="428.4371865566859" y="199.43402199532466" width="28.610241627209916" height="74.91134377736694" as="geometry" />
        </mxCell>
        <mxCell id="LuRM1TjAb78F55fPcYja-35" value="" style="shape=stencil(rVjJblsxDPwaXwntyzlN/yNAnMZoGgdO0uXvywdH8tO8aIwCvXkZSiRFDkfa+ZvXx7uX/c6Z17fT8fv+1+H+7XHnv+ycOzw/7k+HN/2087c7f/NwPO2/nY7vz/fn7y93C3L59OP4c1nh99kuZUlxsXLmz8cv4s8/fD3jnw7Pa7wRWwEf3RwfqqQ84Kv4QvBWyri+9eLM3MA7KWE0qGLS3MB5CaOBhlD83MCGlpFm4DVHYW6QJYz4kHkI4u2AjxoBcciJHVOajSTL1k9jSosVS/3/SEfHV8lkfU0Q1FCNEtkRBHFpNCjiSMQ+SoYqUidZ2WWpY8xV9yQxa8rrGEPpS3yeJCtuPLWsWSKVrUl3Y1r12AzZQbMeDdaFz3MDzbofDULhBprEMlZ2EUsqVQ3imFZX6Dlo1oMbDYxUUksatB2ztLQfKY3i2t8XgjEk5hzFQLeJI/iFIMdadS1pM4KEUrUUHwOesuIJASuh2gL+ZIbX9Ud/QqObGQHDidXG+DO8C4APJJ/BYKNp25CSU3wygGdsrXiH/hfCRb62dK/8Ieel+IjrU/Kt4grg2YBVvEV/DCEuv2mYIpl05OJPAHxgw0mPMwHeMqquWP/Ko8R/PS8bAF84HvKfeb8Y5Dj1h9SD1jP0l8bL8b5iPpn/2l+Iz3x9yL/WAxdQoCZqc3CGN7h+4v2Vsf4zW9+gerrajxUFI5swik+bfiT84+vWH3ZefsO3vUGn+NGfQvnKVxTUpQ2E/4IPqv5wXiRWn70cG14Jm/i/zC8LeEP8SRb5ylC5ngrOI0vznxPySU/A5/rBN7q/8EMi9Vy7fllfUMgGNWEDa8SeiazaBvpKZLERb01P+UrHBeZTbpqni4JKWb1alJaqcxitqCwrY9QqmD3p4+zaGF3fUsgOWkgGiLo2qTOtbFASkUp8vXXA6KicW5ZSg1o1vBsul9u+RaL6OG7Uimnl9fkGEj1mld2/N5WUr60Pt6DI6Sji9A6JylHb2aqXdqT97zYPCLoni8Db1ir90HJL2nQCjmdgLX8DKTjSctMAsyuEGUMINKd6RdlIfMfecFQxbfDsClRQkgb+RtQV5QVP4y0o8QNtM8XnAPjC1y9j0UX6/pEKPoBEynWLPxnwbMQu8UbAM0m05HPk0nRtZDoHeEd6TOuhbt4AOf7f3gyv4vXD5YHy4fD0dH7fXP+PD5r60/kx1N/+BQ==);lineShape=1;sketch=1;hachureGap=4;jiggle=2;curveFitting=1;fontFamily=Architects Daughter;fontSource=https%3A%2F%2Ffonts.googleapis.com%2Fcss%3Ffamily%3DArchitects%2BDaughter;fontSize=20;" vertex="1" parent="1">
          <mxGeometry x="426.7735749005735" y="273.1428709905101" width="46.18353033814651" height="53.93561052800442" as="geometry" />
        </mxCell>
        <mxCell id="LuRM1TjAb78F55fPcYja-36" value="" style="shape=stencil(rZfbbtswDIafxrcERep43XXvUaDpYixLijTd4e0nz/BsUfFfDNid43ykeRY16MPb8en1MAi/3a6Xr4cf4/PtOOinQWQ8Hw/X8VafBn0c9OHlcj18uV7ez8/z79eniZyevl2+Txp+znKlUNZJSvjX/MZRKn9efJ7503je8oFKbPhMjvf5HCmHVn8i9fsCqZDzjYB4SmlfIFYPuBFQpQy+EApJagS8UtF9AZ+JcyMQPPmwL6Bx0bcIxOoDiJJEiq0PydP0c0/AdSZloQC+4Ji8NAKFlzDcF6DSBqlWSkQWLQ5ueJQFRxotX6A93OkvoFCZYuh4h3jt+AT8ZXJqeQ/8ZWKxvIP62bV8ppShPWJ5VKO8dOGGdyD+NZ6GT1SgPSVbPgPedfZU/aigKWZrP8P6NHOr8gLyJeSC5QPkRS2fQTyr/mLrQUB9CrG3fABDy9mpONUzjL/Pli+wf029OealRXcKInUDpcAC9X1DwoaXzmGUML4TUAEB5W4A1QRDezhZPkB/pS/Q+P/4vETv74lR7UcNE21FZLfMpPsVGmxEk1AEEdJgz4Co5IALvprU+hCECvAhJHsKeCEPijRm2/YqpMDplMi3aRaFfZwDuXawu4A3rrrNmCjBbaV0PjMFpD8t5/TKK0jCNGeT4R0YLJVXq5+x/tjxIGWVLx0PEjC1ecej+JRlsVp5dHCse8PKo8Vg2pOy4SOKZ7EnK8M5upnL64r/gQPFrOzwpPnnK8SHfH1Y7ysv4+k0X3e2/9v7TX0134308Tc=);lineShape=1;sketch=1;hachureGap=4;jiggle=2;curveFitting=1;fontFamily=Architects Daughter;fontSource=https%3A%2F%2Ffonts.googleapis.com%2Fcss%3Ffamily%3DArchitects%2BDaughter;fontSize=20;" vertex="1" parent="1">
          <mxGeometry x="275.5644982053361" y="315.4358140344309" width="45.00108275843081" height="47.288377889718504" as="geometry" />
        </mxCell>
        <mxCell id="LuRM1TjAb78F55fPcYja-37" value="" style="shape=stencil(lVhJchsxDHyNrigSXHF2nH+4ynKsimK5ZGf7fTBRcTQERy3ppgVNEt3YyE14+Hh9et9u2H18Hg/ft793z5+vm/Blw7x7e90ed5/6aRMeN+Hh5XDcfjsefr49n76/P02W06cfh1/TCn9OOAkkaUKx+3v6hSmF/z98Pdnvd28L+5opOGMf5bJ9yVSDtc+X7bNQKNY+AntH3tqLu2wfhVJvH8mly/ahUu75mQlYtedKrudHqAJ7Xxvdzd5HEiCAdxRr77CnChiKje9mHxwVdCIq3BPkicH6bNdPTLkCxShLT2iECvtAqXe4JMoMDsTEvWQ1UUQae5LeZWEqwIXIFPodJJOAqFZKpI86KVQKIEk57MNCEjEAFEe1Z6lK23MdUCgYgHoFMln/NplTAkWwQx1SPweYC+JaIMyhFGHoafHiPvZiogSUVhKDSYbSeFsHZCucZk8CLEkl3/vAqgwGMFsAqsAKCGIBDPJBASaWvIYGPpLJBwVUoLSI9eE6IPm7jiRU0l1Oi/VhohWVGeds5VYEaiXTFkMlRjkqMykLAKpkCsgDQDwExJ5XLYYe++B5AKCEqFRHAMrR2mhf+oB3CGwBBce3H3RAlWwCBAtw9+3g2lhw0YdgAQEJV1vdWgAc6CijDlMG3aX0lKNoB42lcQektLS+v/ABhsaYD67teWvGOdhG15LakwfK3Y9QJUoP0HnCo/ArTdkZoBUaSTdPhHObyzjAmVxPbErwSLVS7H3QoQwV8BpbwszDQIQjU1EX+8p0XmIdoEnfA8TD8NPhwhlAgWOfDmUm/Bbir899OmmbLYQc4FWHBel7tWqZAWAqRGZ2LeRB4fDcgnMWIsPymuwGObVhdtXe2RY00QY8GNInuqb8OkX2PHphQhcssTMiY818aTPnrDLDusfF3sgKdqDaywC+UeoN1OSax1cB10Ks2eMJdLxBOxij4w3dtepx4wuA2uMh3bwwYME0Q7z1F64fbZ+60nVim7nO9gE1HS1sA/+oH8TWh8/2Fa8vfTvwMOPX7GHTHM4zV9Yb/b0yrw186v0brx+tfcDrm3jAL073vmhdt9cP5+ezl91+f3p9W/5vn9v0p9NTXXj8Bw==);lineShape=1;sketch=1;hachureGap=4;jiggle=2;curveFitting=1;fontFamily=Architects Daughter;fontSource=https%3A%2F%2Ffonts.googleapis.com%2Fcss%3Ffamily%3DArchitects%2BDaughter;fontSize=20;" vertex="1" parent="1">
          <mxGeometry x="226.71205225607468" y="356.43396534056296" width="55.65490002442607" height="44.78003548181118" as="geometry" />
        </mxCell>
        <mxCell id="LuRM1TjAb78F55fPcYja-38" value="" style="shape=stencil(lZdLctswDIZPoy2GL5DgOk3vkZk4taaunXHcNrl9oSpSRNL8Pd7ZFD4SIJ4c/MPb/ul1Nzjzdjmffu7+js+X/eC/Dc6Nx/3uPF701+AfB//wcjrvfpxPv4/P8//Xp0ly+vXr9Gfa4X3mmEKaIGc+5gVDUf4vfJ/FD+NxI24duVDIJ8q+L+9cvb9Nyw5XAW/I5wJwgbwFQKYQC8A7iqYPhFyfECxl1weiIeMKgG8AmbItgKhA6gNJKJRAsuRyHxAmlhLI5MAJ2VLiApBEFvghqw2lo7NAT09Aea264oDj9HOSGgjAaP3sfQ0k4AfVODYqZRAaeQ3mLYBU0kt0dwGRPN+lElOyjdHID0yuOYHxCaYx2qFrVaDM6Sk0UCwx+VgDEUUrk0gNfGZ571q5UQlVDXVcq9LnvfViybYAskFIcqMSDu/QGM0YkEYlAX6wRiuZqV1tkav1iFQDAQXTGmsbIOJ7zU0GyQ1HtEmNHJHqer+5h140xcaIGwGeG0Bwzvmm9jHou1dyTqvhfUmKAYl17dMOEUEKiSGpmhY2OnmK5Qna5QSUsshky1IWHTEoA6y1r7xWVgAEUwiLiessgAGvQDVteHJAJR2wuOyjOs+gDqHzEZcJoSto2khkSptlOfGquFna/ro9eeC0pmLYJa564qWLDfSwWRrNZvqEynCsxFFFta0yqK/ZOuvVGLB7MwmvY2JHPNemohrkl9K/EQdeDcuo9SVuwb2Heho0S+JczyuyUomjbnznm+KmuP74er68jIfD/PrZfq+fO7o0P5X84z8=);lineShape=1;sketch=1;hachureGap=4;jiggle=2;curveFitting=1;fontFamily=Architects Daughter;fontSource=https%3A%2F%2Ffonts.googleapis.com%2Fcss%3Ffamily%3DArchitects%2BDaughter;fontSize=20;" vertex="1" parent="1">
          <mxGeometry x="339.4357793917334" y="318.4344364536107" width="20.12917893967301" height="57.139371394533555" as="geometry" />
        </mxCell>
        <mxCell id="LuRM1TjAb78F55fPcYja-39" value="" style="shape=stencil(lVjLUhwxDPyavapsy7bsMyH/QRUQtkKAAvL6+2hqywPunWnCbRlaM7LUakk+6MXL3dXTzSGFl9fnx+83v4/Xr3cH/XJI6fhwd/N8fPVfB7086MXt4/PNt+fHnw/Xp7+frhbk8uvH46/lDX9OdqWKxcUqhb+nJ1ni6cHXE/7++PAeH0XrhC/S0j4+ZwltwncxgtcmefYnqpRMDKI0nQ2alLZv4AdsfTLwJ1b3DaJJz5OBJglKDKLU+Qs5SCKHrlJsxrfxye0zS5zfX2wEYdsh6WnC1yqJhUisTHjTEbNtUkiZ39/CeLLtT5A8R7RViSwFTcJ84h6kGjmB52ymaXciBhLSLmnmXfcYEYMSxMAlk1xIkj0LBQ1Y6VjCUnMDJVFqEXnUixiJUusSwSWnFjm0BzHNBssrCPPcYzTQEbdtg4Z6YZXWgqcJ6r+ur9g2UFSYwvPQmqSZrdldIoduqzysguEVThJnZUR9lSSjClMNK9QrpJNMVxcgUMkkmbhUnAgzl4zKsIekznnL44t79dbnLDjbSdYcX0C1R1b28JoA/0H9RwjQONAePkAGRPn7gddhBOA/9ShQCjkeJNUzTgjheEN8IHjvYGf+s3g6PifEE3V0vCn6z+YKDx/6U5g/EfMbpDE+O35+f6R8XvAJ8JXkd/Ef+dN5fOoZ//n71QDPeseSX0U80Wnnz5k/H/A/g8SNlr5bjxh/1jeW+qqAz1x/zuo3cD2BVskHkEV/KuCV5HeJJ9Yja6yLfhrgwwd8QD0JvL4+h/fhZ85XGp1/u7/kMV297RGV5NenJ9wLwlCwbYM+9pjVwIYkbTdh72DAUHeJjVsqFdp8oTn2WQlqPhfaBHx8g67to0ogLvn0BKq+TAokSjGsMr72eaNC55/os0HLdDnwQ+jZ7N5Ia/UwwXDjr2Dbgc+9DeZeGxvP3mSd57j2TqcbZx/sjO8Ct7ceAJv8E5X45Itvg0W5iRKffCADRfVRmA2+zn9YG3saTm5nbkwEa6aN1qiOZWPFe9ESjQw4uVseQ+cOHqhaC10NIhKv1DE0bGvYmOrX8rQxlOytsaBhnkRjGag4xGoYsradYx0KtGqSUpn399nskn+T3rcY9qkY6fVJVmzMRnm97MnzB1QKCarnCHahSBXM8XgASlLHVxzUWIAcD+LiWsAuyOzcf7aZOT5h44wk/o7PuDhlFh/H46BGz2tjjn7LF2v8Zb31eMMrj49C16R8W+JpgKfxr3jzo9I5Hz53Afoh3n+83bbeHu/vT5e17/+Pt7P+6HSzq5f/AA==);lineShape=1;sketch=1;hachureGap=4;jiggle=2;curveFitting=1;fontFamily=Architects Daughter;fontSource=https%3A%2F%2Ffonts.googleapis.com%2Fcss%3Ffamily%3DArchitects%2BDaughter;fontSize=20;" vertex="1" parent="1">
          <mxGeometry x="331.88736879740554" y="366.6557417918507" width="51.61333352941324" height="45.96531904622316" as="geometry" />
        </mxCell>
        <mxCell id="LuRM1TjAb78F55fPcYja-40" value="" style="shape=stencil(lZfLctswDEW/RlsMSPC5TtP/yEycWlPXzjhO2/x9oCqKRdC6nexk+YACLh4kB7l72T887wbPL5fz6efuz/h42Q/ybfB+PO535/GiT4PcD3L3dDrvfpxPr8fH+ffzw0ROT79Ov6cV/s52tVKKk5Xnt/mNJ3b/Xnyf+cN4XPORODd8pBq2+ZJJ2vVdIJeBAVMOrUOOfN02yJ6iaw0q5bJtkIR8+wVREYBLUShyGzMvUd00CGqQGoPkiIGBCNVWpcxUgEuqurRB50pBtg1cJi+NgWYmAJcixdYjrRQPee74CNIWSLzlCygkWbxd8RVkuauKiQf+OEodX8D6mp/OnwT00Yphy38osMGz0acsNbLFB8tH7E+yPOpLXtr8k89UEtIze8sjfTwlsTzyv2uxiQf5Ckt7rPgMGiaSE6sPM+yXankB9RwpZ8tjf1JXbw7yZsgpH6A+H+qt+AzqQSj3/Qji9VTaenDMUFBHtWuYiiYcce0CADxTSJ1AIAD1thOI4YBg43+hBHnfNTza977Ku07QkmBFONW7VSiXRbPbKS52z0i6BJhxUmzOEsOiDplq2zWh4l1Mh04bg+A2S2mZ+p+niUIFlGkOdjBOoxWdiBxJG7QTciAPRRu9zXSAhVS1NdsP6JEKpK0GW0kM60L5wob3aP1oj0+8pP02n5blVjw6kmZ79MCDZdq4bLwMJt20kYqNF1T1dTCv9AQFcT0orfKF4tWDiSkgYjQYuRtFbtn8tz5QzaymhBL21TvEf3l9uF5YnsbDYb7vrP+3Fxx9NV+O5P4d);lineShape=1;sketch=1;hachureGap=4;jiggle=2;curveFitting=1;fontFamily=Architects Daughter;fontSource=https%3A%2F%2Ffonts.googleapis.com%2Fcss%3Ffamily%3DArchitects%2BDaughter;fontSize=20;" vertex="1" parent="1">
          <mxGeometry x="428.170034513686" y="325.43204405998677" width="17.40073238435093" height="40.9820911931954" as="geometry" />
        </mxCell>
        <mxCell id="LuRM1TjAb78F55fPcYja-41" value="" style="shape=stencil(lVjZbhsxDPwavxISqYvPafofAeI0RtM4SNLr78utIcXiesfIm4/hrkTOUEPt5Obt8e5lv+Pw9v56/L7/fbh/f9zJlx3z4flx/3p4t087ud3JzcPxdf/t9fjz+f70/eVuQS6ffhx/LU/4c4orkbQuURz+nn5hqvn/D19P+KfD8xk+F8rs8WEbn5REJ3ymEAFeqJQJ3yiUbbys1hOZGm8H2PPKvOGolBQEBKrzDriSpO2AKD2DPUAyNbAH26FM+JQoAXzy+CwUQM2YeE6RFV0awrd5w6WRggxl0jbha4brj4HaXIIWKAsIqBTjHJBIQYClyAc0qoB2EqnOS1KGORXtJR0BiRoISI14zpIWUqAcU1qZy6aVMihbSVTEByCt1ejroJkyKFxtlILPkoI3WJnSTKWmUM72t7rCCdSOZZ3TTL5KCVDDst6cGhQWzpLo5GzyyUD/yxvmtGbrkXgPeaaGdUHUVNUENAdI6pq9nNZCyXVtWyTYQ4uU5jdYGwxgSbX0njjaaiIBaTXyeT1AKpXs2V0ooKbUSGa8wK6dK2lx+AiKZnh3UHEv+xY++YM2ATUv+ODwSDkLfl5P7P1jc/3Z4flKfuYCB9iCl/xHh4fGYjToMzxqj+pbvOFRPnWdH0Row1dnLDqhtvBOk3akoHyuOh1TRPyx53s+ZMR/9U3FWjXKvxJ7/jPiT/NdzvSF1t88/6/iQ/Prwfx0bZq7LdnCr4zsFb0kXy9G/BnH0BkfcH/IzpeSYL03//yA6xXnfIZOqC28W88VPTbvAgPm/yfxZRxY45CkAPCVvX6Hzb6MX/V/GyQKsirGR1cwSxkyQ60XdDDIzjR0zA/FDgkItIzmPOr8BjMSAZBOrYnOSTKrgvYQw7ABZ26oIb/V/LlRAxUgTNuEE77ZTuRVNHpz0zKuXPZHnz0iIi5pl/qZUY5gD0Y+nn2vuUjUfc27V+eGFNpYmw6SO74DdmipXngFA3LYiBOr3wSyRBL8kWbOVsCSrKUHl6bhbC/TL/upy5ytImvt69AY79nfhpivRaesUXkmd8E5XasnwOEj9sF76HPc11zmkS/Z0gDQXQX7uwSbJBiN4uovE6yJoWmIqw+waR4FSPaDQbQsgxok7l3044oJOUGbxIu70OlWYFNqMz7Aq4H1lRoWZmG/4QBrZvjVyYxkWdhPvAFOZkW6kfjAIw0YPvr1oGG0iB/ZbfJAk98FPCLQej0RXiGs92tOHOVnlU/uo9pmvfykCPO54gPDu6vPXuFex9uHj/vih8PT0+m6+fx/f79sP53upuX2Hw==);lineShape=1;sketch=1;hachureGap=4;jiggle=2;curveFitting=1;fontFamily=Architects Daughter;fontSource=https%3A%2F%2Ffonts.googleapis.com%2Fcss%3Ffamily%3DArchitects%2BDaughter;fontSize=20;" vertex="1" parent="1">
          <mxGeometry x="403.63064364774027" y="367.43396534056296" width="44.16586712113963" height="41.22408557423182" as="geometry" />
        </mxCell>
        <mxCell id="LuRM1TjAb78F55fPcYja-42" value="" style="shape=stencil(lZfJctswDIafRlcMSHA9p+l7ZCZO7alrZxyny9uXqkpbBKVf45tE4iMBEAs5yNPH/uV9N1j+uF7O33e/Dq/X/SBfBmsPp/3ucriWr0GeB3l6O1923y7nz9Pr9P/+MkqOXz/OP8cVfk+coSQjZPnPNMAk9t/A10n8eDjNxAOZ0Ii7yi+KG0cxNvJlJADAeuJWn7KlmHVALMUWEEceWOAsSW5NcOT8OuCF2DaA92QD8JFQaJ0UPKW4DkQhcQ0Qyw5pHUhSpyuQHAmvA9lSaM+hjAg4h5wp+BZIZIENBUhBAx4cXAFy1EACNhhmYm6JTGZjC6sBB2KjTEevgZAh8N/GGZDAyZVp26mU0Q6JcrfDBhC6HRIGJGogIrcmMrlzK8igEehsMA4DyoYE68wYnKIBjwHXAXbDrVkDBsVSqsc0Axh5KVcF5gCOJd9lkMX5kFgDG/mQuyoQH85R3sjRLuVQBxqN6IIpoNpX3NSFa8I7SJ+joODfTbx1ubsf1oIj9lmNM8J1boooOB4GTAcIJaBSsrovJl+7/XKbs7q3xwALTbD6IEKESeqNbnM+1JHly4DRNjhf+9jydcNolcTXJrN8oRHybV+0EbYUI7XP3oIpVL8t26ALU6i3iUVxrtep2/KwYTEZr8SRQ7mWuLu4A7p31cKQwau3zmfKIMuKeFbiARRg1j2EYXEss0aJW2hq0KsbqHtKSpyBMsVvenVUf4y+AzNsTUZfKbg+A1bEH3pTbIqXj/vz5e1wPE6vn/m8fu6UoempJM9/AQ==);lineShape=1;sketch=1;hachureGap=4;jiggle=2;curveFitting=1;fontFamily=Architects Daughter;fontSource=https%3A%2F%2Ffonts.googleapis.com%2Fcss%3Ffamily%3DArchitects%2BDaughter;fontSize=20;" vertex="1" parent="1">
          <mxGeometry x="452.4349972515729" y="313.43500067072637" width="52.836943378054684" height="51.31337853831678" as="geometry" />
        </mxCell>
        <mxCell id="LuRM1TjAb78F55fPcYja-43" value="" style="shape=stencil(lVjbUhsxDP2avGpky9dnSv+DGULJlBImpLe/r9yMw1rOnpC3ZdHJSke3Y2/k7v354W278fx+POy/b3/vHo/PG/my8X73+rw97I76tJH7jdw97Q/bb4f9z9fH099vD82yPf3Y/2q/8OeEi5l8bijPf09vvKdY/7/5egK87F4XgFApiQU4AQChMgGyXwdIJldGQKAAAL5SNl/IFCIAOKpuAIijlNYBLpDUEaBOunVAIebBXlnIgFWhFAf7qA4V4BDVMWuJyTOImOrIUCqUw7p9ohgG+6xvEEG+89cBRUgAwDPVkdFSyWXAkCM/fqEqpSDkoC6NHNVEBVRFDD2lZ0AhAV9IwVZ2zZ3ni4AcuscLlxgErSR6A/A98xcBlW0MpfTSugyI9gvFU0FfyFTGPORIEQStJLIfay9RAL2gLoWR1ohZakGbbovkQPEprTx+QQJFkGlNXDUjSackcCkJxRHgGLIUmXjsONdbcG0MF2/sBdunauz5ypgfJxJTAQNP7bM39tf8r8Ye9Zry48TYO7AT1D5Ye8b22cbLIF6dz5ysPRjYai+WHw/4Ufto7QMo6bYvrD1asrO96ytr1R9n7D1ogDleB5u+8RmNfUL8cN9fH/YZ5Yu7hFjY31Rv7posKsXGe1O/OLj+LvVjRdtv6nfuuu2T80T7EeWXbb4Y+q/2MvUjzu8UL6xPpWPqR7TsXW+/hf+4f2+yT3ESE30gXd4wqeu984bBBVqCHVgieNOrZhwzHALew7kruPMejtAlx2xlr676CLqgVhuE8oDKQvVSHmnSXV5QEJq3EaBqgUEi9PfMqq+qDQCvKn/cyKsSlwFAZaM5fdQKMxdl2vWMu0G1LxvtWyiAcpVzt58BKgwBTU4zlyyvKNXOWZGmFYw6YtLKWY+qYKPpABhLSY84SIxPtRprz8vKkauMA6CNHHiECqM/7UCCjnTSBdm5obXdwEhtimz0SPAM1lOpke4+9hPM5apIfectZG9CW3CSvdfXlCmjpotQL+S+VhcA2Dx5GqwMY1CAmZNNSiFAsVKhBY20/vlYuZj1UMyWKWjX1+kqIFkAOr83QLCAgvZtsctBSwMK7NK7dwFA/awAnu6NBCeusAWgkaQAc8tx5VR382XZJwD68HE397R7eTld7S3/b+/y9NXpHlDu/wE=);lineShape=1;sketch=1;hachureGap=4;jiggle=2;curveFitting=1;fontFamily=Architects Daughter;fontSource=https%3A%2F%2Ffonts.googleapis.com%2Fcss%3Ffamily%3DArchitects%2BDaughter;fontSize=20;" vertex="1" parent="1">
          <mxGeometry x="480.0360402640449" y="352.42201269862267" width="50.513062590163145" height="58.18489940500035" as="geometry" />
        </mxCell>
        <mxCell id="LuRM1TjAb78F55fPcYja-44" value="" style="shape=stencil(rZfbbtswDIafxrcERep43XXvUaDpEixrijTd4e0nz1BiUfE/DNid43yU9ZMUSU368L5/ettNwu+X8+nr7sfh+bKf9NMkcnjd786HS32a9HHSh5fTefflfPp4fV5+vz3N5Pz07fR9XuHnYlcKlTRbCf9a3jiS/OfF54U/Hl7XfKKsHR9JEe/I5359pei2DXKk4HqDQg4ZMIV+RxIo+W2DpOSkM1Al5W2D6K0G7yjItkEIFGNvUCjHbQOfyHFnEDJJ2DbQ3Jx4DUMkDzQo27glTww0SA1T6AyqozOItIskvYacqAANnrSXUHPRg0ArFbF8TIjXaPkMeKGYLV+QYCrD+qUgXkYehIybuhWfQMSYxA/+BHq5xX/FO8z3GVQyTOq6n2T5ANdPYnkFeh3psB8H8k3u7J9hPqQ48CC+Sn5YX3A+D/7xQG89L97yEexnqFo1vgzyra5fLK9g/755b8UH6J8w8BmsL3fOO6onYuuPY4aCa2saBBfQOGr9C5ZPQDDfKUABHpjRoagXX9WtEqLA9d2QcPE/8k5ao151AHQia2cPQ49hoLgOG6n/Qm3mAkKmnkLvoxjg+OHFVvWQyAPRwdnxo/Z6BqIjt6p2NeCm6r5Bbn33Oq9I++b9AWfoxHUiQr0+i52IXIZTXY2rSb0a+wyOQlFrEImB5uJtcWTYK0toiXbjIwhC5X00vAcurXwuhkd5V2IbZW68Q/uPbXS48ShidQyPbHm0frYpwTBJK5+sf9BJniuV9T/qHfPopoZHE/XcKrLhEypFPBRHhx36r/egv/L14Xbpejkcj8udbf2/vaTVV8sFTx9/Aw==);lineShape=1;sketch=1;hachureGap=4;jiggle=2;curveFitting=1;fontFamily=Architects Daughter;fontSource=https%3A%2F%2Ffonts.googleapis.com%2Fcss%3Ffamily%3DArchitects%2BDaughter;fontSize=20;" vertex="1" parent="1">
          <mxGeometry x="220.23580420069266" y="400.4347130849296" width="22.328868761646845" height="51.80737100316151" as="geometry" />
        </mxCell>
        <mxCell id="LuRM1TjAb78F55fPcYja-45" value="" style="shape=stencil(nVjZclshDP0av2oAAYLnNP2PzMRpPHXtjJNuf19RD7dG+B4nfXNudEDL0caG716fH162m+Be307Hr9ufu8e35w1/2oSwOzxvT7s3/bXh+w3fPR1P2y+n4/fD4/nvl4cm2X59O/5oJ/w644qjGBoquN/nLz5T4r9fPp8B+91hBHgZAYGKrANEKKYR4Ig9AETiOAAKcV2Xz5XqaEKmAM7PkYIb5GP3wVX5JBTG87l/uCofK/ls5D3wKKv+0eiTHZB3lKrxjwP6BE8y6uOZUl4H6L/LGDE9wqEQE4/yqiLUiOpIIXVBARH2lEYHJT0fyHO/fZHX84FHhcSPBNIQAgb5ZBmhJM/I4AlQYiftdQsyyejS6igDEinp3BjkGklQ1vhu4gLIVAFAlEZiAchorRRlzLOqxCoAMMWhFIqAqDXYG/TOAGyoieoUaQE21Kl4aTWIgEp1qVVLMgfKSCU1cVRJyxcEZCo8prPvR7wX4KgCLjUiOAuAcRByU4l3GBAMWzu51uSTISvMBpUXe36OMAjOnl+QS0vvMBcGo4rRaBEtALXZmRYaZfch4jVaYOKFCVCxk0zF0M7PSCXpVf0CkNAN0qN0AYBx085TphswkXyabEBMzbZXKcDdyLZs3QpVUkCwANTdGsCopL0Bq1SrBXhQiJuXRkDtE8FqlQxGPuP0z8XK4ypc2cjLDabO9ehG8kz5zMhDpXeBC0DBKn0M4N2i8nsbQ7VUjdzr8hrA3JAKrmJiS4YOBR6pxN3GpUEHOHpqw2cTaU8BuKn4ae5ZEnBtjLFTCe4NWZulSWiH2RQLiaG3wPam054ZoCue0NuGYPwqfWC8zqZo6dcmJZByud9/EekAbNYaN1YAdRtSaCK3DrAJjdx9TFtWBm3ZoH9ma68O+agK+2VHW6K8tOy1rSpYWsCipztRGFmRIIu4WqJ66KG2do7pj1mqgyxP8kB/XZujaTswM8XZkYdh49S130wLiTw6v/TGvVAUMrrMa7DvEbkOCBQMJVIvBasAM75k2EUawFkAWtoUYEcwgZ1cjbbji+YBYEXzUrUAQUZ7+xqhALTaKoAnldDiqQDbzQXHwdkHFQUU/KYl0w1ooirTE4wC0CjcntnMoJrhsP0/73K3APrj3zPg026/P78iXv7fPhvqp/OTI9//AQ==);lineShape=1;sketch=1;hachureGap=4;jiggle=2;curveFitting=1;fontFamily=Architects Daughter;fontSource=https%3A%2F%2Ffonts.googleapis.com%2Fcss%3Ffamily%3DArchitects%2BDaughter;fontSize=20;" vertex="1" parent="1">
          <mxGeometry x="173.87547584160166" y="441.62515762413136" width="62.86254500514224" height="33.08150012914416" as="geometry" />
        </mxCell>
        <mxCell id="LuRM1TjAb78F55fPcYja-46" value="" style="shape=stencil(rZfZbhsxDEW/Zl4JitT6nKb/ESBOPahrB47T5e+r6VSJRY1vUKBvY5lHlLjoSpPevewfnneT8MvlfPq6+zE/XvaTfppE5uN+d54v9WvS+0nvnk7n3Zfz6fX4uP5+flgsl69vp+/LDD9XzgViXSjhX+uIkMt/Bj6v9of5eG3vKIfOPpKL0F5jZ19IErAXCqmzd57YAyBS6Rckro1sAhKoSAeoUOTbgGZKPeAD3EMQkj6moRADIAll1wEpUQBLKoWi76Oa2q62o8RMzD2RSUGiq4syABlkugLaJ2IZQZvI5J0FIvKQWmleAQV5CJR64CoO24QfyrW6AOVXlHhYU1IACPHgwaMluSFMmQqopgrIAMBqqh6iBRhUU92DM6lOsIVqlIQtIKj6fFvxFcAFptp09QKgxCVSZwEHzo0liIOHv5m51RB+ANIHLac2D4LyUIFsgYTPjTBUKzq+l/mGag24R+PQ1BnlIZIMx0ZBmfaUdQBQWJX8sOmMy3s8BAIC3FZY/ycQPfl+0yk3odwEvFLoFSIy7Ieqy7nvOB9bh9wSXtOiqjBKsQX9Tailqdi2Awp9YdSbAFKsQeGqXoE6qtOXzjzA9g+kfQIcbM1gFZ1hF0S7V6YAYp9s6Lk10aZ5bofzuzmjhrGVgDWzXvHY7hWphxMr40wOKKar4uGNvaK68eTseiKa39szjqG+1iuz69fzdse9ZS+2dBKe/9+u5B/a14/3+//TfDisz4fr/+17oQ6tbw29/w0=);lineShape=1;sketch=1;hachureGap=4;jiggle=2;curveFitting=1;fontFamily=Architects Daughter;fontSource=https%3A%2F%2Ffonts.googleapis.com%2Fcss%3Ffamily%3DArchitects%2BDaughter;fontSize=20;" vertex="1" parent="1">
          <mxGeometry x="273.79211914514804" y="407.40191345463904" width="11.861895566017665" height="35.278621044562215" as="geometry" />
        </mxCell>
        <mxCell id="LuRM1TjAb78F55fPcYja-47" value="" style="shape=stencil(lVjLUhtBDPwaX1XSaJ5nQv6DKkxwhWDKkNffRxNnF4/GbuKbWXq0WkkttWajN6+Pdy/bTeDXt8P+6/bn7v7tcaOfNiHsnh+3h92b/dro7UZvHvaH7ZfD/vvz/fHvl7uO7L++7X90C7+O52IjlX4q8O/jk0Kqfx98PuKfds8neK3UeMBHygzwTDEP+EAN2A+JtDl8APalUWGHZ2BflGoZ8EpSL+MbhTTAE7VwGZ5JRrgwCcBH4jjiExWAD5RH+/akgPBY8ML4tUIBhZ/qiI9CEfpfx+pJgWK8jK/Eo/2sFDJIVyAd01UsXyi/hfJ4oAoV8Ab7hH/21gOVagIVLf4NLS4cOh8jJq7jgUIJBMk4GdwBixtwKZnHI2malSl4Q64Ux49ulmfwhrJ2hTVKiQR8tP1bx8o2EwwOmAOOyNlSiQ7khVlr7ZmTiMrFF2vMMNP2Bsc2tSeADc3IOEapd1NEh0zJ9QvLfQN5qFTG0hDcAIoV39h/KwmqDPYdKcKGYbWaxywEmDUjg2uoCvu1Nj9vbH6AABk+FYevgP46zT/zH8TH8K7DW4fC9tnPM0Tl2b7xAvujweEj9ie5AqKA7TdxeMT7nt/s8AxIafg82QfxMXzz3wubr8zxTMi++N4rsEd0vM+vFIz39RwRnpdyf8cXxEem4usZCRbDq9dDjPEsV+CtfrLnI/Kn1/P0vRgvHv9B/YuPP6q3jvf1VjFfwlRvGB+bwyvS040qOzzq55YvcQrzIz5ehU9WD6M/RmiAt/nSfH1GUM9FFnm+ygIoVCov4Vv9Xxl9/kD1BJC6lNT5IR+puIpbdcL5A3WpmBMZEUHPEp6CGgtcI1r1LDBJyKCtNF22tjWsFc7tWrxLJkVQoXalMhLHxA6arLn5TbHh1Sy1ScSawsNaRdxseo/0RTaPqWsNCjpbd8OkxJFPvfxHPjSGhOsLolPiWAHaBuo3fIUjzRx2jFO8QXkFaDtgAfaniW8zMYHinsiguOXNNw5YoslyIXGygzNoAHHazqCCLdTG/hKhwhf1mxYWaP0CZPxcXNKW3pIcHgkWq2jnPy/L5n8KzAAHYJoERaIAGlGaGJagADR8UodHgsvwrm8lONAMX6+5IUrTAMy4y7FfgPAA7P54+wXHJ2eHR1cHho/j9xZ4IdPz5QYHBSR4p4WjQPb2BXTCI4Fz5YXnx3j78X67+rB7ejpezp7+39/G2qPjTa7e/gE=);lineShape=1;sketch=1;hachureGap=4;jiggle=2;curveFitting=1;fontFamily=Architects Daughter;fontSource=https%3A%2F%2Ffonts.googleapis.com%2Fcss%3Ffamily%3DArchitects%2BDaughter;fontSize=20;" vertex="1" parent="1">
          <mxGeometry x="269.52254242846016" y="445.7958877128365" width="45.26063434391244" height="51.10572622922882" as="geometry" />
        </mxCell>
        <mxCell id="LuRM1TjAb78F55fPcYja-48" value="" style="shape=stencil(lVfbchshDP2afdUAAgTPafofmYlTe+raGce9/X213ZAuwnvSvO3lSOhyjoCJ7172D8+7KbiX6+X8dffz8HjdT/xpCuFw2u8uh6s+TXw/8d3T+bL7cjl/Pz0u788PM3J++nb+MXv4tdh558i52Sy436+fKPm/Hz4vBsfDaWVQEwXf4wPluG1QCoXYGegKBawglbx0BhzI87ZBLpT6FSITu22DJBRyZ5BSq8JNg6i/+6RzpgwMmMn1IYmuKdsGWpNcOoMisEqVcl+kqmVDbaDqLB71WUiCxUsFTaCQLL5mUFLKPX7FxNslJVeGBUACnsRbfAYJuPZ3hWfQMUfe+NcSF4R3bPEJ+o/F4j3Ae4qmwUogoJow5CuUQPyRQrD4mIDI2uprPCCEEKchHtCvQnmIp4B43ui+rifwr+wKFo/iqVQGwTgo4DDwk2G+fhCYAL1kkmzxrxlt9Mv3fHhfkGkQTAUNCG0+rROAAqiD4CMUWBj8e5DwsPFpgwU0TP0PgkS7zEfxuo+mvsO6BXigGO2AmemSIUU5kfQh5QRbFqWN2LeNMrYxc5tEyvmeFDHAouZqk2YPx5CUppLVcYJBm0u0PNJCM0i6KM16Ivk2+rbw0k861/pyW/iO2Bt8RoPCW+GoA0CLGqySHdw4qh6WisE7cJKosZ33VniUb7KT9B3/0mS7ih8N9jLmy2Djm+dyMnjEuPnckA2+oHrWgXDkgf8PH8H/w0Af/p34nw7H43JhWP+3NwT9tNwu+P4P);lineShape=1;sketch=1;hachureGap=4;jiggle=2;curveFitting=1;fontFamily=Architects Daughter;fontSource=https%3A%2F%2Ffonts.googleapis.com%2Fcss%3Ffamily%3DArchitects%2BDaughter;fontSize=20;" vertex="1" parent="1">
          <mxGeometry x="341.9044689972279" y="415.43402119731786" width="10.658344446086176" height="41.347816493475875" as="geometry" />
        </mxCell>
        <mxCell id="LuRM1TjAb78F55fPcYja-49" value="" style="shape=stencil(lVjLUhtBDPwaX1Wa98yZkP+gChNcIZgy5PX30cQ1xtPrbcPNLK1ZadRqSbsJN6+Pdy/bjdfXt8P++/b37v7tcRO+bLzfPT9uD7s3+7UJt5tw87A/bL8d9j+f749/v9x1ZP/1Y/+rn/DnaFeztNytvP49PnEq0f9/8vVo8LR7PjMoRVqYDKqEto7PUZqf8EUSwack6uD8qOv4GCSHRQBh3SA4qW02COPJRQOvw4GTQRNX1g2cE50NfBbnSMwYcohSIvFIcp3wMYonDll8sz8pSsjreLvxMuEtiZ5cqcuDAqccB4ksgCKa5iS7kcbLEdiNzyFUox0xSE7S/IZmLlXC0yAuzgZZErlUCzHNWWhFKjGoXkrCN7A0NxUfMQaXiEGSMCeulze5JfM4zMVT7FpJtZnHdZaLXKhcNGPaHLQVeGIxKMZgFc4EpibxMzWswgtht4UYQfLqiOqygYrO9K6DK5ep5CXMzDDJIVkwvAMJk8TPB71w4om8dPx8vtJ4uz8N8In7D3phxOXn1wh45aXp8XwlJDV8UcQz/yOKi4pj/sTRYN7xrAYMnzHewvEF86tEWPr5CfCR8SEOcX7HX/Fnwc/G8mv3P+M9bX+GD4r4K/wpgKf8MX429J/XCyiKGwn8YH05Cew+Pc4HKo3l167DA541y64/GfCB+w9805Hw1VaJ/ijPb0J/ruBbRX84PwPWI5sNPosvHscb66qsI+lipq5UgGrBycBamLLJICCDotUE66oFKWpt2JEYWhvDz1mjD+QNThV9skZb2CxRULZspmM61xzquk0XjfhUrXHMRG2VXpPNdND5zsJa1YqGr8iErElR7GxqYwtOKGMYOBkolVNbJ9xMvxporl0cU+Upc9ZRSCISroA50UtyQ57P9o9EBH7BJBsB2WRt+xBMgGEo2mUiYb/35g/Jme174JArfOHS0WBOBjYCEo8sQJ2ZWsfsfzkDixEh083AEgQtPA3ers3Iy/OJ/13BKvivbMOs2EIqXakNHxHP1MjwGWqALnOGr3h+Jfdv+AZVTFtUPx9kgo6Mhi+IZ1ra43WAZyNa354Xn32uJAA2dsebZmeEogH7LlMXu2g3YDF89tPVBwzsx/uXsofd09PxQ9v5//HLmj06fpULt/8A);lineShape=1;sketch=1;hachureGap=4;jiggle=2;curveFitting=1;fontFamily=Architects Daughter;fontSource=https%3A%2F%2Ffonts.googleapis.com%2Fcss%3Ffamily%3DArchitects%2BDaughter;fontSize=20;" vertex="1" parent="1">
          <mxGeometry x="309.80087425931265" y="453.7218837798662" width="36.85255388822861" height="46.313938792579165" as="geometry" />
        </mxCell>
        <mxCell id="LuRM1TjAb78F55fPcYja-50" value="" style="shape=stencil(lVfLctswDPwaXzEgwRfOafofmYlTe+raGcd9/X2pqnRMUFo3N5nCWsvFAgQ38vC2e3rdbjy/Xc6nr9uf++fLbiOfNt7vj7vteX+pTxt53MjDy+m8/XI+fT8+z79fn6bI6enb6cf0D79mXKQUJ5Dn3/MCU+a/C5/n8MP+eBPuPPk+PpHk9XjvKIQu3kUS8AFfKPUA76m4dYBkyj0j8cSyDgiFWDtA8JR0HRALaU8pBnJ+HZCUkvQiRYphHVCYSk8pZ1KwaXUUuQMUbUIvA7SJ2ABaSApINDMxW8Q/pdc+ob4HKDmQiPo6JgsIwEyVgBYLgJQK+YGSIkq5iXK167sOy4hEUYZPoExEysOuM9p1JDfKBPyqgbIOiUAyheb/21QjSoFKtoCAVLoW/Q2A8aa1r+qamgJqruYhD4AEDD69dgMAm8m0Ms33CsINlDRBQCpWJY8BOuQhIZV0oYKgvas3nQUIpuTZAhIu6jC4tSB71zQN9aAIkKgMlBRZIw2tr1LCNS1h2DSSNdiGP+l2p+I+BCi1LxlrMAlofTnaUy6XptvyKResW1OiAOohinVrjMRA1iDk+jzUlQQA9eTPfTMWgfb20s7l67QhsPO5ZBvZtAI2ndukcFW1HXqL4WyN5OB5xXaUcW3yWAs35EnAlLHw70jMgTseJdk2bIYTjLPCczvbV8JVTDiDkvd26sSnvrQe+H/hgXgIB2RC0+1mqyCrkbzljoT84MR/N7w+vF8uXvaHw3w3uX1vLyN1ab7IyOMf);lineShape=1;sketch=1;hachureGap=4;jiggle=2;curveFitting=1;fontFamily=Architects Daughter;fontSource=https%3A%2F%2Ffonts.googleapis.com%2Fcss%3Ffamily%3DArchitects%2BDaughter;fontSize=20;" vertex="1" parent="1">
          <mxGeometry x="372.4339655327417" y="413.43803321200426" width="18.905865269104197" height="42.74130812797807" as="geometry" />
        </mxCell>
        <mxCell id="LuRM1TjAb78F55fPcYja-51" value="" style="shape=stencil(lVjbUhsxDP2avGpsS749U/ofzBBKppQwgd7+vnIzXtZy9gTeNhudtS5HN+/45vXx7mW/C+717XT8vv99uH973PGXXQiH58f96fCmTzu+3fHNw/G0/3Y6/ny+P/9+uWuS7enH8Vf7wp8zrnhKsaGC+3t+Ezx5+f/m6xnwdHheAXKkWAeAr5TDNiBV4mABBQEc5WJVcrwNiI5SGgFMDGzgOgESJaBSKBT9AGBVsm4DfKY4Gs2JXNwGFEoyyEugmIAJJG6QVyeEAiygnEd5PdEDn1Ido5wSVeAhP/EoSw/jZUCxGpVAHsUgUR5jUPQTKMqR8uijKpBHEknGINRMAlSKQnW0oRZicEKawlYTFZRtzhKvMjnAi5zJjyeUTAmoVJjCGLjiIDNKJTdSO2vgQKRV48Ijl5TbIBfUJyYZYiCHTsgUTPZ4YnyCTU8tMSCfa+xEWCrGUnS2jOaRGl4TFADUrTzWJNUoY/lRI1yRVF6sfES8qDahVX/kIUfOGXmUziov3sg7LF+SlQc0rb6ru5JHHJoKmOuk2pKv1p+CCBF63q7ihewNvV+8y1fkf9Vn9Kfvib1pLxt5AXxr/rT8RC2zxct+P2H+cLHymP+m9nqKWH6yl6/ki/WnRw38Qj4WwLcmn438lbIbLX8Y15Niv+9RfJXuVt4h/jvbjpcCsMUfb/mMBiKVj2L1x/lbrDwj+dBngZX/QT38tHwib/jjYOfW0cGPAWgVGnmo2oi1JgYo5N1Uo7VPCiqiU1PSTnylscoI0JHnWphHgE4TaCIqsZeFZV7xcEjLasM0NyY0c6mJ09yIjE5CYUx9jaUAgM6NthY5nD0i5NkeUQGAdegyRkQ4fwQhGfulVpAMjPDJzrI6wMMO1eeBJdIRdhy2DTzlHsmL8hO5dcWJIM5Tg5Jl5LkcZuugljxow4l9IFvyU/pGcjkE2bb8UKHFrDQbTdC9DdUYmRdfD1XSXdzwTpd3RoBq1wld9FBRyskWAN2dK2rkusrOKqGKwX2QXgEEAzhaQAJGKyBOJ8BhnO1qeqV7NkC0gIDXOtOer8ynzYZiAQkNMNOG0zIKBY77irW+1wGVu0V6vptCRoc+0q0BKA6hc/OjgM9el30AoA/vt3MPh6en8+Xe+n97m6evzjeBfPsP);lineShape=1;sketch=1;hachureGap=4;jiggle=2;curveFitting=1;fontFamily=Architects Daughter;fontSource=https%3A%2F%2Ffonts.googleapis.com%2Fcss%3Ffamily%3DArchitects%2BDaughter;fontSize=20;" vertex="1" parent="1">
          <mxGeometry x="365.1942645687948" y="436.06124873908607" width="36.26438880923865" height="58.99274334781148" as="geometry" />
        </mxCell>
        <mxCell id="LuRM1TjAb78F55fPcYja-52" value="" style="shape=stencil(lZfLctswDEW/RlsMCD6xTtP/yEyc2lM3zjhOH39fqBrZIhTdJjtZPiBB4AKghnj3un942Q3Cr5fz6fvu1+Hxsh/il0Hk8LzfnQ8Xexri/RDvnk7n3bfz6e35cfr98jCS49OP089xhd+TnSq1NFoJ/5neBNLy78XXiT8enpd8olA6XinXbb5Fqtyvbwa8bVAzxd5AKqWwbVAyBe0MYiVJ2wY5kvY7pEai2wZJKPQGWSkBgxgo9UGtTCFuG1hMNHYGLVADBpm09llQYpC2TDl6PmVw5Hn3BV8BbyFNnleQA5lFdlUFMzGQhalSVxsI4sP6AGB9ptQ8Hxvi2fnTSDEfPJ9BQJkkex4piKk6fypVUJeBcvE8KkuZBb/gIxSEj6fxQBCJkng+Af8zyYqvQA+ZGvt4Mli/EDfPo5I3fpUvpM9M1enB9AZ5rzelAgo+rfRjjR61rLkDfrQgheLqAGhwWEtkz1fgEFNZdTgkUGuwqwIOIKDX0y0ShhtESJ4XIKDP8iH5udespkFHGSXdZ6DoLML3U1x8TeYGa3gci/0Oqc5Rfl+k16FyHcUFJsE8zv0OVkgCXKrV13FosG5a9ZOsUQGy0+jTEIhB3zK+9EfmubI/eH+yyQP6uvFNHC9ofZv0zfHoYqCFonoelIG1WfH+MIj/2GaD4wOKZ/ONkWF+rcrF+5+BRMeu4/1HffHW1W56QJfLRdu8GRQU0M9ewP/L28Pttv90OB6nj4Xl//7rwF5NXxbx/i8=);lineShape=1;sketch=1;hachureGap=4;jiggle=2;curveFitting=1;fontFamily=Architects Daughter;fontSource=https%3A%2F%2Ffonts.googleapis.com%2Fcss%3Ffamily%3DArchitects%2BDaughter;fontSize=20;" vertex="1" parent="1">
          <mxGeometry x="411.0818312012159" y="403.4347526729898" width="16.482890120734737" height="37.679411831629295" as="geometry" />
        </mxCell>
        <mxCell id="LuRM1TjAb78F55fPcYja-53" value="" style="shape=stencil(lVjJbhsxDP0aXwmKWnlO0/8IEKcxmsZBkm5/XwqGJhZn/NzcxmO+EZfHTbt48/Z497LfCb+9vx6/738f7t8fd/HLTuTw/Lh/Pbzb0y7e7uLNw/F1/+31+PP5/vT75a5L9qcfx1/9C39OuKSUa0cJ/z29EaF6evP1BHg6PJ8DhFRXgHgZEDNJmQGZOFwGiFJ0KlXSBABCOU6AKNR/XgKEvAJUqnoZoJRkkk+JCjAhU2iTfBZKyEfDIUO+hPGFbYuppFleqQH5SDrrUysVEOQyKDDkW6II9A9MOhvQTCHg0FAo8gTQRIFxjPMMKOPMbUCjOtNOG0UAiGlofA4AKlkmuKiZSg14NTOV/BmjC1Nq3q0oOaudMBPbAsf5MqAxhdlLxowAIt0a8ewlo14AuWYm8nyCWRWASlpHmJbkMTeA9O+A2UuJcTbHkSxL+gdSZHSlPAPErAL5VnWYOAChkgCjzYniAGGcuc2lNoruEjh4QKqjAC02U0MVqXomyWDKpaKd5pIUqKJ8VuLo5AvQx9K5VCefUIVslIKTF6R/810qECP9V/IMu6DJO5IaqbE+zv9Mgnpg8yWeIUN7k1Uvj+PVgpdH1dTU9fIBy+fk7UUdjX15tw+AMmTybRUvUCO6/Nzyw6hjl+RdbQ+427AfcsI1/ZmdfAH5bvFyJetqPgbP/4L5Wf33M+Zn8vIRy0dvL4N49Xz0/GnAn/37Pr8y8mdb8xPF1+RXfEN9VVYNwAKO9FdfD6/m76fko/nT14cM7E3Nj9QC87cPAbM/8ygwlyYbt3bYzImms2YTtAOU8WYboKQz46xFChojit8KbIzIQKXAqyS+Nqmon1RsFmrgiK7THGZzNOrzyj7PzNMMErPJGPcWQIOdtQrFmdktw2XCdh91YzLehnLwvUkzHCaS+P3GRn3EbtsNHDfOYrmdb3VMlMsRCmfMj/5yvn6AChCSz1CzWlBG+ApmsS8g0vb91S5RQRisoK9WiQaIsUqGvsQCD7GfWArjDdBXvM4TRNQxoCzJGeFIF6IfeWOhgmYu9mu7dXVFTaeOnr2UpHKNp84Gq2ERrQXil97eN4ENG/dFBkAsUp8IHYC3ZH9fhL1kgOwAAc6+eSm6ZwC0PBlAVyeg6d2YxtkDCij0mwAF2b+hksC1esNogdTYcOtyz/a/gRM4Q25Qwwoz5tInLyuvA+zh42704fD0dLpaPf/f36Xaq9M9bLz9Bw==);lineShape=1;sketch=1;hachureGap=4;jiggle=2;curveFitting=1;fontFamily=Architects Daughter;fontSource=https%3A%2F%2Ffonts.googleapis.com%2Fcss%3Ffamily%3DArchitects%2BDaughter;fontSize=20;" vertex="1" parent="1">
          <mxGeometry x="393.10331958501524" y="429.21259311169115" width="38.119105229744264" height="58.65001921483895" as="geometry" />
        </mxCell>
        <mxCell id="LuRM1TjAb78F55fPcYja-54" value="" style="shape=stencil(lZdLctswDIZPoy2GBCmSWKfpPTITp9bUtTOO08ftC1UjVwSt3/JOlvEJxBvswtPH/uV917H7uJxP33e/htfLvgtfOubhuN+dh4s+deG5C09vp/Pu2/n0eXydfr+/jJLj04/Tz/ELvycukg8jxO7P9MJRSv9efJ3ED8NxIV6oj5V4TzGvi/tEPlfynqkAQL/nXQWwpz6sA4Fp/G8JFGhB9BRKBYRMRdaB3pPUNsRCIa4DiSn0tZMKFQBkJldrSAqgKDDFWkMWygAQplTHTRxFYLTo9+ojiRoN4qCAFAuk8hAg5Hp8pAaIDgJBLJCQ0WXOzQUgSEMhTnV6O0cOEZlSaFQgN+XZKQsAJZMk6lNjtYcARwswclOyNap+EJQbTRdQoEfpmigGCzDWYCOXSZCG3GjIlHFu2DgogI6k6d8cCWqQ2cStNkij4Y6XZA7TxjgssnlrqGVuXFuTSexEGc3CVe0aDbAgyjyitpdcqY+0oapt6O40jkTZP9Sa0tx9tza/R4EidpCKh4HQkeNqDcXB2Z6ug/k65tRLaPJqrpltAwOx2N4XNb14HdDRbyoiXNPr9n5SKNdHYs0+MLV0fUl1pJnn0Xq75tgC/rqj3TaaSl2iCe4/jthsZHD7cXY18XCYNP1Cty2QQ87WsoPxdXZSOcrw673dbSNoFKqbjTjqpt5uF2oM6Cp+bggLcXB2tvPpnrj0VhwkWaDYmAqiGqg0jgTiD94p7orrw//ry9twOEy3n+X/9rqjr6arUnj+Cw==);lineShape=1;sketch=1;hachureGap=4;jiggle=2;curveFitting=1;fontFamily=Architects Daughter;fontSource=https%3A%2F%2Ffonts.googleapis.com%2Fcss%3Ffamily%3DArchitects%2BDaughter;fontSize=20;" vertex="1" parent="1">
          <mxGeometry x="431.43403787651937" y="403.4370753263597" width="25.713168346044313" height="44.01638328274453" as="geometry" />
        </mxCell>
        <mxCell id="LuRM1TjAb78F55fPcYja-55" value="" style="shape=stencil(lVjZbhsxDPwavxIidT+n6X8EiNMYTePAca+/L7eGFItrzSJvzma44jXkaHf+7v354W2/E/d+Ph2/738fHs/PO/9lJ3J4fd6fDmf9tfP3O3/3dDztv52OP18fL3+/PSzI5deP46/lDX8udolJ4mIl7u/liafC/x98veBfDq9X+BiojvhAOc7xIVMuA76QywAvFNyAZ6YY5gY+UsqjQSIpcwN1IIwGIsQgZNEUGYNCBZzAPSU9p4mSnxtUSmPMIVACSdWQx5xGoeJAjsiP+OTg+z25NOIzDDi2hDd8DiQVJEiPHw8orh1526CSHzNaInnQRt61Lu4GlaqAvvO2ZlWfgJzGTK6OBokiKHJ2NqtVswpiKExlZYC4U9l2tsYQQQzqsc1Saq04MzDszzjoKpRlbKUA2akO8GgQHcxSLsQjeXxoI+2mQdJuDePAiBRA8ym5vJkwbeTM8GzxHrFZ8d7gHeo8sQF0Os3w0Rk84s4yTIrBM/Jfx4v1xwGqKb6s8HjleLb+YLzpOddecBsf2/Ef+Aiml+I5GTwaLQt+JE1fKNMVWw0e+hPsOmDIGMXbfQaHr9YrV4Pf6gdn8Sg/YvuBWwJm+GD5lXH/ixj8Bt/Z4jf8Z8uXjPkVLB83/MmWL4L62RNXg3e4XkZBOTx/wrr/Yf+E1r5X/oOdsfS/t/nB/f8pvIoZyy/1EBRYxYkx8LpXQcSqNcxE0SXGaHPHpjX6mvRNN08UVK/R9SYGPtXaYuy7PkNhrdrBjW2tXqK5VaSVtRvU1om3C1GbKu6FcButl1rn9yMKnI16nYirIBIwUC1ulo2qqoy0bLbbT/OKYihteXU8Q72i6mOsm4rrAuizaoxFvEO8UTd6ORDABmnD9urywSDeZLfHIrWR1hfbd3rFQ/Tk0sZt3zcZUkFdMpJxQ0Ep3YNp1AAvB8GtqAAvUCGtikYMuLmM4FFS9J14uwbOSkBuEc3wdbUyUY1V4VoJG5AGZyvRGFYsSdtgVysf+b8iDbeLywwf2eQTcUDxyUocdNFa3m8lFLqwKz4YDjRSzPBi8R70z5JPc2miiOuV7FeiDCTIZ78qbeP1x8cnrKfDy8vlC9j1/+0nL310+Vzm7/8B);lineShape=1;sketch=1;hachureGap=4;jiggle=2;curveFitting=1;fontFamily=Architects Daughter;fontSource=https%3A%2F%2Ffonts.googleapis.com%2Fcss%3Ffamily%3DArchitects%2BDaughter;fontSize=20;" vertex="1" parent="1">
          <mxGeometry x="439.0808827103715" y="437.7811222606963" width="32.71965248087622" height="46.49173568078527" as="geometry" />
        </mxCell>
        <mxCell id="LuRM1TjAb78F55fPcYja-56" value="" style="shape=stencil(lVnbbhs5DP0avxISKVHScy//UaDpxtg0KdK0u/v3S8GQd8gZH2+APDg2qZHIw8NDzUk+/Hz88uPhxOnn2+vLnw9/nb++PZ7k44n5/Pz48Hp+s08n+XSSD99eXh/+eH359fz18v+PL9Nyfvr+8nuu8PfFT5Vqm16c/rl8k2n+Z3+fL/ZP5+etfabu7TuVdNu+KnX26yt2ECrdOdiO2rjtUAaN7B0aKXJQSv4JItTAmQuT+ifIIJbbDtKjQxHqChwKcfIODaaBB6l4B/umAYdKyeehZqogD5xIhndg6uW2Q67U/RkslQMcOmcqxTvUlZlDh0bioWfgKhnkjUr19p0SsOcIVU2UKrJnjyM1oID9Mw0fICu+BFJQVoKWfUuUQQaUhs9YKxDX2Y7nE9AGVRCgbHXiHXqhDAoh9xXAq0OnCmpz5sCfYTBVVAhtkcPVoS5GOy41JvFZGw1uSRrl4NBhlIwuQpTMoYAtTQbTuCVFHNkjgw3FyNBYOqNA6BlyxNfCsGoFxdwzjQANOzSAhv3c/BkMSx1Uj+2YPeXZMzOAxsxrqJ8Gz2AOoZNYGOATauxVVqENQKMPav4MaugCFNPTQs7VQWBYtUeSqWPRwq0GXQLP25YQvGWl6epQMO1ZuQQeZsjz2Yg1bCkRQyIeu2aICo5XdW3tUS+MxWD2DIDEK4Ab+wT3k8J+OnWQ5CN7yKoLxRt7gfEUifYZnjfKnb7Uxq18eUCY2kFKQSIepj3i+KP9wPWDpjV7pO9K7GpmXwD9loP4o4opkd7NfoB4ygH+EavI0scbe0F6NkrBWS/gvLKLz1hEeQMPbVcvaH1e1brdP8Rbbrv4wPXTLl8D6aIovGZ+cb3v8IZInRf7bfEJz1vfhX9ebPO/6ysoorv1+z57awC6S0BDCRsRcdYxECOWsgK+GVYYpLhe+/RmWFFwBh1Le2+mjwqKwNRMyJqNExl0JVNk2UuuO/OE6RvxOtPkCuLpnFLsNFMRAWYZI7aOhqFqEiqEqTNMxNgNLV2hXrH1RrixsNSAzLVKeTeDoOl9ajgfpSkMAVwNCUGATMEPomRoFo8NCzQUaUapHq6bXB7XqMYbhYGFo2TiMFNctedxkepu8tIlh48dchywh1BFVxAat9SxEMx5JXYzhKAz7OfZBJVRiVORgYuhUhO/vlVoBesnUm9vFICqZ1fPxjGo8yTqHnc2TaD1rfMH5a6w1jSON7XeYaQdq5qYwbdSQXtVxnccYzWOzUVZQc3W1FeYhzAmuMck35GPwrvLPoVPsFpuQWDIYs1jmKb4BMETRdlJVBE44ljHD1MjN6hJZtT9ljhD0WZTaJitLfeIXgzKgSMbNVD7WiJ/JXiDavZVgj1SqWYf7o3S0k237IPsTDAFWiM7JngdavZVoz06b133wxt7fCkVxuQELxPnJVaMJ5rC56uNuD4qZN11wLTmyJv2EQ/9zvo+npkSPu/7Xs3ctbcP/70H+nZ+erq8Rtr+Ht8b2VeXd07y6V8=);lineShape=1;sketch=1;hachureGap=4;jiggle=2;curveFitting=1;fontFamily=Architects Daughter;fontSource=https%3A%2F%2Ffonts.googleapis.com%2Fcss%3Ffamily%3DArchitects%2BDaughter;fontSize=20;" vertex="1" parent="1">
          <mxGeometry x="470.3240240897244" y="419.4354115946194" width="46.8541187925905" height="65.5722135700687" as="geometry" />
        </mxCell>
        <mxCell id="LuRM1TjAb78F55fPcYja-57" value="" style="shape=stencil(lZdLbhsxDIZPM1uCeovrNL1HgDj1oK4dOE7b3D5UB5NaVOY3shtL/CS+RU/h7mX/8LybPL9czqefuz/z42U/hW+T9/NxvzvPF/2awv0U7p5O592P8+n1+Lj8fn5oku3r1+l3O+HvwnlyrkGe35YFJh//LXxfxA/z8Uq8rrureKQStsXbadLJu0Qi20BgCtwBPhO7bSB64toBoZDwNpBU49IBianUbaCoDT2QMxVgQ82Ue5VqJJ+3ARHK/Q2iNngI1N6tooFJEJAByPgG6W3QFb6hUrJAAF5qRjsLFBA43faDSgJSQ02U/gbHTIyuqJTCcEWBgBMLVKTTR3JeAQkUnALFW8AhvxbKJhD1lkqFLRAxUKsFGOW3esmoVGDJNQXEAhmHug4VlHDJmUbWbkBx0DANN1TQ+loieOslhwEpQxxApK+y+TrUuOZkqDmP8luG3NCyxUUaB6DizsTRAoJzI+cBQEZX+6Q0lZDRZWiWgnPjq4C+BwaoCfaZrI2pB9oKuCEFcr3RycOCiLx26493VGMPSk5HgWxe6gIj7apt+E79BmzQV7YPdCYB9cOU+q7k12a+IR6CEQ8gsdm2MJ074Okmqx105lDIjgKogU9OZ+BI1b13JMOhTT0TjXgEmTP4XecleLrp1LwOcJ9njX1g8QvuKNlxFoubHo2V+eKwfFNcP/7P5U/z4bCM9df7do7XpeU/QLh/Bw==);lineShape=1;sketch=1;hachureGap=4;jiggle=2;curveFitting=1;fontFamily=Architects Daughter;fontSource=https%3A%2F%2Ffonts.googleapis.com%2Fcss%3Ffamily%3DArchitects%2BDaughter;fontSize=20;" vertex="1" parent="1">
          <mxGeometry x="517.4234419807312" y="408.42738685720633" width="42.95478677731694" height="41.395562357380186" as="geometry" />
        </mxCell>
        <mxCell id="LuRM1TjAb78F55fPcYja-58" value="" style="shape=stencil(rVjLbhsxDPwaXwm9KZ3T9D8CxGmMunHgJH38fam62iwpe9wAvW2cmZVIDsXRbuLNy+Pd83YT3Mvr8fB1+2N3//q4iZ82IeyeHrfH3as8beLtJt48HI7bL8fD29P96e/nu47sT98O3/sbfp54xVErnRXcr9MvPhO7P798PhH2u6cVIQshakKhWC4TUiLvNIGpAkIsVL0iBEcZEEKzK4REOQGCp6RjkFe0fJngI7WkCH2T9TKhktchpEwOZDVR1Pgc4YYCscaXSAFEHIl1lTlQBHimouOtUoIGE1SzJjC1AEvQqiK0SAWpYiYwOaS7OHa8IjSk7EJex9BE2fEyodShsoUQYBW4UdZlq4UcKHMVHekVmKEuWiLHWhjyChCD5CRqZWSmANLas66bTaRdQdBtqkNMxEAaEnTWlRb5erBCXY6H5YTxsDtLo2QIxGABwYdk8AnjvcX/PQ8u4nWKHDFDfGSDT6Bmgi/V4APYD7vRWe94JFPBZ2fxoNN4miEOtjJ7isHuHyhI8MXiUX4EX+3+Uf47Xp8UuL6CZ6u3hPLpKZsZC/UpeKMfP6b6pfyzxgdyoF8EH7PBe1Bf0Zupr7wf6982MFVQ365/Yykog3z2/rLvR/qZ8e7aeRKtfpBhmeMVPYPpOufTwfzP9XIw/7MeBI/7K9h4/Yf07MYB9l/wNUye1I0OPT+TvB31olB0QogTCHoFGWJo1LdmHZqMSQYa8s7ZwSqTGM1J2ZPJkugEla05O8bEkATkYiVN+hwVV8e40YqOQQyJByuI57ImrVICUhVXZ6S9Stx54+iGEV2WaJDQxWycZoa1FrdhgqiyAujnPE7bBb8MuPMLjOm7cu/ofjMpqUiDgP7xVqty+0C6yJO2I5w3fjnOl+7JwzGcJ0wHpNyoIroPsbXi/YoEUto3oGvgxXaCHEmIwczYTAUV2Y37zEJI0OXIVbyYFSKURfHWpnUCurD40VsrAuq2sviOFQFO2mXQrwjwxAjDia4IDc3CMEJcpRVdWDphqsOVGKy7SPCGIwRrLzL2R95+ThDClcJZLYl+sTSMY+5qRTF89DvQPxDk4f2z08Nuvz99tVr/336mkp9On7ji7W8=);lineShape=1;sketch=1;hachureGap=4;jiggle=2;curveFitting=1;fontFamily=Architects Daughter;fontSource=https%3A%2F%2Ffonts.googleapis.com%2Fcss%3Ffamily%3DArchitects%2BDaughter;fontSize=20;" vertex="1" parent="1">
          <mxGeometry x="542.5775573512785" y="438.1157231726479" width="36.8643163445272" height="47.4356065072875" as="geometry" />
        </mxCell>
        <mxCell id="LuRM1TjAb78F55fPcYja-59" value="" style="shape=stencil(lVjLctswDPwaXzEkSPBxTtP/yEyc2lPXzjhOH39fqC5VEXRXzk2WFjSwWIAgN+Hhbff0ut2we7ucT1+3P/bPl90mfNow74+77Xl/0adNeNyEh5fTefvlfHo/Pl9/vz5NyOnp2+n7tMLPq513jpybzNj9+vuKOP958flqcNgfFwa1Uk4dPlJ1EC/S4QtlwevH3h9PoWCD3BtEEuxR9r1BphKgQepdmjiK0IBLbxApIlILFWOQiVEMhWIfA1ccQ24ONIPAFBGtQsUYCM5DIOlZCoXEAwPXHJiV5KkAaZREqfYG0mi4bcCUQ2+gman/N8jZuiSBUgIGjmrPkhSY6RTI9+WgbwS4JLHldTYoVIFLMVnx5UgBsKRpcr1LucLEqdRq3zJKhHlgJu7VWlTwIGitYJOHSV1A3kLSp6HiELRnBYvPiFRy1eIr8Eez3K+/6LO3KSI/BICy7JuOF/gCAnZNZEuCQDU78tHi0bYw7CLaoSpokW6It1CC/psWrHgkat0zksU7EK8qtK8BbZjI/0DTJ4OHgrPxKh5UQGxfF/57wL809hb4CAumDvxkEG8a8lshn2I7r+JRi5Ab+k9gfW1po/4Bn4FisnjEPw8NSPHAH08yrF9gvZSBT7TROOJhfbQbaz16i3dgb3Utm0s9MMJHsfgI+ttH8XM3m/FMCeB1hDMJKBl26ElxvYLKrJHbCgq2ReQCXdJpxsScA8xZHPZV3eodKEqdNXzPUmJYNUnsBCUZtt3sqfZ9ThjqOiebuFjgfFMGZcQIK0HTlHuWlGgPWNKxMfT/EHIbt28bqDTNJBth0DrJup4lHa49qJ7q7faqgk/YwEhDDwgOzftzuSyOICvju+nwa4cctjPU2jGK7SFn7aDGNui1o2CwY9rKWXPwaOUsy3YKWTkrc/v7hndwqJv8Twaf0PrBjr1aTEhFkTgYPCO8WF2r0JE/YvnEQ29N9i5hBa/NyvoP/RlOySvx1rbcnXzOM/Sd+ZpnlPv08OHLmTsM9OHfXdDL/nC4XiUtv9u7I311vXcKj78B);lineShape=1;sketch=1;hachureGap=4;jiggle=2;curveFitting=1;fontFamily=Architects Daughter;fontSource=https%3A%2F%2Ffonts.googleapis.com%2Fcss%3Ffamily%3DArchitects%2BDaughter;fontSize=20;" vertex="1" parent="1">
          <mxGeometry x="177.96222133418541" y="477.316077177182" width="18.726720820606033" height="53.89889993521024" as="geometry" />
        </mxCell>
        <mxCell id="LuRM1TjAb78F55fPcYja-60" value="" style="shape=stencil(lVjZctswDPwav2JI8H5O0//ITJzG0zTOOO719wXroSJA1ip+syWuiGMXALkLd+/PD2/7Hbv38+n4ff/78Hh+3oUvO+bD6/P+dDjLr12434W7p+Np/+10/Pn6ePn/9tBX9l8/jr/6F/5ccCVRaR3F7u/lSfBU/P8nXy+Al8PrHMBUnAJwIG7rgFwoRAXwmSIC8Hg9AeQJrwNSJs4KUMmF9fWxUvVqfaSSwXpHycSIQl1fLxFs0Xy/Afv757T93pEDBvlESTvgCzW3DqjWIC4jBNc9Jp+0w40c+L6nVNX65LEDg2JjveQ8J2SPoVAJFIH9zSa4MqUI7JFwaAdqgxyV+GVWgBYxJyoFLZuWKYMdYhvfmwGgbBxxtSY5QLsiAF44jaQvJNBpqIE8MKnmwZopb4kyypujFjQxMlUg5R51nelUyBUAkCBqrUWpT2iHSlH7EAp55EMZ5XASp4QVkK8DtNq86PW2HSoknwCiznSvF3iHvAAgAQmgFgsIaIdqS4wAGJSMnoeFSQFluo6SMgOgIiOAGmxYURUTQFsA0gbAtMJGHtTVblKxgAw0LYCio8S4lQggOQsIQNMC4GgB0GmhWr4RYCeMDZOE3vUmpyfJz8O6obhkAQ6bxCZxEmhEvonMnyVfGd/7LL2LnfS2BeSyBTAWkA3rZhEwc8NWmRF6LwCwkE2VdF4qMb1vA3jnbJMLk0RW46o1GivOXLKiTlMhuQ5gcjpMuY3hYK1Rm9JX6hgx10YB0yDkEwEPG3ZgwiOfjDNRC6LhRi0Dk2nUrcEhV9LkTao/crk29bGzNmU0F5cxH828RgSvdjCuaaTyukWLvEWoB2epJ4M3itGC2xLliu3RzSEIs4B6yng7Ve5EHh0copWCxw53i3QRy8PEtbObrTCUQJGUs2HRGcAUkvgZRniKgNVytjX2x2HgddmEBeOIQXzysmYHrHw5G5pm6yFFi8hWNyoxKYEQCcCM6P08h0gkTUOTIjhYKjogWEDBO5gJQ3jCeAfTzgWQAe8EwGwBDYfVHMYCw+5chElsAehaRQD22oPhCVQA5h6jA7BJfukD2iFRSxbg0A43X29tA+THx23a0+Hl5XIZN39vb9/k0eXmLtz/Aw==);lineShape=1;sketch=1;hachureGap=4;jiggle=2;curveFitting=1;fontFamily=Architects Daughter;fontSource=https%3A%2F%2Ffonts.googleapis.com%2Fcss%3Ffamily%3DArchitects%2BDaughter;fontSize=20;" vertex="1" parent="1">
          <mxGeometry x="132.9602370364139" y="522.8046147483767" width="58.822474381749544" height="30.044657824292244" as="geometry" />
        </mxCell>
        <mxCell id="LuRM1TjAb78F55fPcYja-61" value="" style="shape=stencil(lZdJctswEEVPw21XA41x7Tj3cJXliBVFcslyhtsHDAOSaIRf8Y4S+xH46BGDPLwdn14Pg+W32/Xy9fBjfL4dB/k0WDuej4freCtPgzwO8vByuR6+XC/v5+f59+vTZDk9fbt8n77wc+YcOTdBln/NfzBl8+ePz7P5aTxvzAMF35gHimnfPFFIjbnBnzeGvGkBTzEDwJOXBrDlE24fmPTZFkgYSCTcAFI0+31AIrlWgwvE4JBcJN9uyRdVQLTvgOAoBuC1qL0chQRoiItbK5AMGQGOjmRjC2QSsKWcKbQaciLHEMhGAwGFBjNx67nyDQbRV16npAEBsVFe+6CBv7L2AI4aSGiFcigdkCMAIqX2XDfnsEeY3C2BRJQi4DQQkYhAVjTggOsK0HvOgBTKnrLyXKKEwi+QiRpAZaAA3mvAoi3FmvQbgJHoSFGJjpQRkGqGbVdAnk41dDaAwQnhOg1yJ4OkO1akIVeJGyDfKQNd8FlQmaaM7MLbY8B6DaAml7sut25yD+BWw3/kqPQ5iuM7GQ0k5LlQK932mJDqjwJJdOfNTA44YupRqqdYMqjNiQ6m6GCb8672g6WRlnEDlD7XreADDCYRSm1Sl2EAOa4MZKovlnkCHauJtTEvA02uvXhvxlIznLVkgehu2jDF9WieId+6rayI/Gx1bC8N6Z/m3CUPCfh6NwQYYnD+XGv0Og8nkJhcy+Fq7kHAse6cDPe+bHU1N8izukUVMWAzVjcoXIOsDkyGw5SQ0VJR9xMKrMxRVe/ysJQSlLe1Va/mAZzMBy9Fd83Lw3r/ehlPp/n6tn2v72vlr/muJ4+/AQ==);lineShape=1;sketch=1;hachureGap=4;jiggle=2;curveFitting=1;fontFamily=Architects Daughter;fontSource=https%3A%2F%2Ffonts.googleapis.com%2Fcss%3Ffamily%3DArchitects%2BDaughter;fontSize=20;" vertex="1" parent="1">
          <mxGeometry x="222.4346620453382" y="468.43539801195675" width="25.236687515750646" height="50.41454567701544" as="geometry" />
        </mxCell>
        <mxCell id="LuRM1TjAb78F55fPcYja-62" value="" style="shape=stencil(lVjZUlsxDP2avGpsy7bsZ0r/gxlCyZQSJoQuf1+5GYdIN/dQ3u6iY0tHq73hm9fHu5ftJoXX42H/fftrd3983PCXTUq758ftYXfUpw3fbvjmYX/Yfjvs357vT+8vd0NyPP3Y/xwr/D7hWqAiA5XCn9OX2Cn1f1++ngBPu+cLgESK1QKEWlsHlE7V7dCIMwDoDsWr1OI6IEcKzQBSogwAHCgFC6jzy1WAKlCTAXCkAliKgcQazY0aAGQq1uYs1AGricQqVBoFRCo1a3FtFAFFkSlYA0SmitcV4hk2E9DKJO26EwqxBfREDJyQG2VrQ69UgUpVfRQtAJMkmULyOyCWWqZoI6/HucRVgP5ma0NjYgaAQtnuIEo02kEoWcCgQTDAejp3CiBUlZNgHccV5mfPlC2tGiwR2RBmcp0rQJhEX/dDmW46A2asrPmtuw2gybq+C4xzfq/q0518xvLOy1qhQFSofKtOPqD1q09OlUf8VBL28iBxmlD08tBfQrl4fpA+MhP9Xb7i9V15jNheXT87eQYBOvRnJ1/x+ov4bGh95d/Ld1Dphn/Fy+N8ad7ejuqcxqdr+iQoHoqvi1qDED+L/IqwHw95W0YDtQ/y0ecvqokqz+LkUWtS+UW+wL5R/Yij+YXlyyJ/kbzM3xf64HhmX08+iP/q+S84Hz8l37XHWX46SQXyml82nnVA6iBAdRBobqCrsKLEEHzIfdQmu+8x2ogFAZrvq9rqG4g6ZcnN7trXMm4bYt2sIxea0XQgcnV3KAl2qMvTQcCtJi/mFd0iA18zz9JzBjAcrUctsTtoOnWQ/fHcXM6OaFQATey7nw7XaFZehFIROEAlCpbULLi8eP1ZYLnTA5krF5pvKH10h+5OXHlWkOteDp6i0fHRqTH4iUiPmSh79JhZLKmxwkFZD7KuZkdND9Rk46KpyTx4rgEKe0BEbUenguIBjBydFnOFzDPPGsANgoNW1MmTP3SNYEGtMPlhXwEJGZ3mbcAFoGCVvB8aCfZDLx7Q0bgffdmLfda1NQBHD4BGh5lfFwDo6c/e0/wHQB/er4Uedk9Pp1uly//+Gkk/na6g+PYv);lineShape=1;sketch=1;hachureGap=4;jiggle=2;curveFitting=1;fontFamily=Architects Daughter;fontSource=https%3A%2F%2Ffonts.googleapis.com%2Fcss%3Ffamily%3DArchitects%2BDaughter;fontSize=20;" vertex="1" parent="1">
          <mxGeometry x="218.40171159997044" y="510.8415091453983" width="36.59828303625295" height="50.35743953938481" as="geometry" />
        </mxCell>
        <mxCell id="LuRM1TjAb78F55fPcYja-67" value="" style="shape=stencil(lVbLctswDPwaXTEgwec5Tf8jM3FqTV074zht8/eBqqFqQtJ2epOlXQNYLEgM8vB2fHo9DJ7fbtfL98Ov8fl2HOTL4P14Ph6u402fBnkc5OHlcj18u17ez8/z79enCTk9/bj8nP7h98yrlVyZWJ4/5jeFsv/z4uuMP43nO3zJlKTD+0Al7xNyoMwdITBJ3SekSDV3hKgE2SfERLGPkJgqiBAihZ6QHZW4T3BaousItZADKTlPsa9BdRYga6XqLb4GoGoLf48H/x8oVIv3ZR/v29e7ghl0mSmbfBIFIBAT9x2ogSLIn8kZPVVhoI8jb/TUDN0+XohDPwWqD8Crgwy+kGcwNjZ/naMMLOrUwdEGYCCQEwrZEkoCBC2hWIk88nSibAiOKvCQy03ChSDQ1FOEXtUaqSCVtAbT5uV42lNJVr6GNTAVk1KlAhvNqcM7Xry+4yRZBYigb94aQyuIqGRyyUrEwNk6aaseODj5vGoymgTecJEHPfYkff46mQnqs4EH+YtvB/Nye0RicBkEsS2OoZlku8PeXmghwElLrrm+ESTC0zqLNdHURuRSaZ5ZIrQ7dBsfKJkA5IFGJVkXLQfy3lZRezy302kbX9d4BqbQ24LF4kG9ehtxNnhkUp2RmgweXcc6g7EYfdACojNujiFpBW3jlxlZLAd3rrtDajE1TqjahDLeb/5zzfw3Xh/+7rQv4+k0r8T33+0OrK/m/VkePwE=);lineShape=1;sketch=1;hachureGap=4;jiggle=2;curveFitting=1;fontFamily=Architects Daughter;fontSource=https%3A%2F%2Ffonts.googleapis.com%2Fcss%3Ffamily%3DArchitects%2BDaughter;fontSize=20;" vertex="1" parent="1">
          <mxGeometry x="381.2691127019614" y="113.27009890116835" width="8.462290412539005" height="11.94233652422497" as="geometry" />
        </mxCell>
        <mxCell id="LuRM1TjAb78F55fPcYja-68" value="" style="shape=stencil(lVfZctswDPwavWJAgiTI5zT9j8zEqTV17Yzj9Pj7klXViGC007zp2CXFxeLQJHcvx4fnw+T55Xa9fD38mB9vx0k+Td7P5+PhOt/q1ST3k9w9Xa6HL9fL6/lxuX9+aMh29e3yva3wc+E5ZmJuNM+//j6i4P48+LwQTvN5QyhKWnq8o3a7S3CUQ0fwgTjsE3Ki6DuCeCoKCEyp3yEIcdonqCfnOkIUymCH5Cn2hBSogDPEf5qsBI3kyz4hMIXYEXIgjfsElyj0O5RCDHZwkcRZQkA7CAW1BAWHrkZwbAlFQOAo9HHbuPF9WUnTsAH4IiEZ8AqMUa2fB4mAL5hkiIEDyTPkWsmkIHeYYrR4AYI6KuZ7lArwhFBJFq9g/eq5AR8zyH1yIx5ZzpGqJSREqKVELAFlcs2CVKykDqVNWk+4IUTkoUTJWUJBhDgcupCgPAuDrAWr5NYs2RAyjJsMeOSjZAtww4Mo1AMMeZOB7/zaMDZ45LvaEIb1PVC05uUQsgwEZfJq8QGE+KP4lpi9rWs3EPBBEqzptDYoUElDXBN909ESCEGs/auvXbVnRuSJ+ronBA9FTUO1qH0fVet6RGcmC9zGtVhftJaFRpHaxnuVHKy/FR/V4Bn0g+wp9OszKYhaFlsqeF3gfXy0MWA4q+VanoPBM5q8yjqjbPDg+4u3icZQnxLW2vyGd2j9RM7q44GDWrPwVk/g6TZi2fMq0KeNG2ZYJgZ168PT+H8Q6sXb8P80n07Lv8P2vf1ZqI+WHw25/w0=);lineShape=1;sketch=1;hachureGap=4;jiggle=2;curveFitting=1;fontFamily=Architects Daughter;fontSource=https%3A%2F%2Ffonts.googleapis.com%2Fcss%3Ffamily%3DArchitects%2BDaughter;fontSize=20;" vertex="1" parent="1">
          <mxGeometry x="284.53734954937704" y="496.43637059933303" width="6.0284542168587905" height="41.0349935400161" as="geometry" />
        </mxCell>
        <mxCell id="LuRM1TjAb78F55fPcYja-69" value="" style="shape=stencil(lVjbUlsxDPyavGos3/1M6X8wQyiZUsKE9Pb3lZv6cCSfLOUtJFos7+rqXbh5fbx72e+8ez2fjl/3Pw/358dd+LTz/vD8uD8dzvJpF2534ebheNp/OR2/P99f/n6565b907fjj/4ffl1wqVBzHeXd78s3HCjx328+XwBPh+c1IBCzBlQK7jogZooa4BM8ITKVpgCByYMTQqZaNaCSbwDAVLVL3UlwgpcTigKkRDECgLAUFSBHKugEJqfvUEQHdIKjmhWgMqTVe0pJAzBLcmn2CtACZXBCWBxYAIsy24BKUdPaxKUAY6np0GhlRNd2tGYqmqUWyefrgFyscLURl+uAUsjrO1RPAQhXs710iePMTUBnXesgsdSAcG+crKKVAUsCKLoIxEQOuSQ/6zuERAEoLSSWoItApowAEq06H6TMNAAQEoNmiT1FABASs1ZapAeRkeIoQsudKYDAiOKQvrLUNZQMyYrgyQN7X60GciBKZ6aYzH0TsOc06s/iP8MDRB+dapxhqsn1tGC9yiZk77Q/XTAQ1WxTX+xRoxJ+vLX/980Ve5cme5A0jnKb/AH8uJFRK3vUBp2tXMJnAwHqyE38oxYl9mztUdN0tn28NZRr9zX+J9g9nM1fsS8wHpyz9hk0Gx7pvbYH+kq8+ckf1MEnPhM14I/ky8Q/owIxuvtaL5yP2doXaG8GQYlPB/msUz56yGea8h3VHx59+r/zsbrJHsZznP6/h/ll9RJ+YL7bepLHIHzN3ln7hPO3WHsP8uWj9sXWK5YxBdRz+dmZYQ52+E6oDqAM4607ZASAI4c04KQbtoP5Ig2+FGPvAP99CNMCM6xXOQ36ljGOMvCniP3UsBk17EjRTCjLNrg99vGUMrhEt0mCgEdXdlNU91EUHdHGTrIadjNoMzK7msky47oraxLrOBWm0YRfqp08ahjj77bSskFrpZuDoSFbe9bKtUX87VidthThzQOWQrHBt5JmG+HG+Lxa5hBNPtqBRXYzuMG6Mb+tNliUEbIy2JWXRxG/BjBPD7KFo5lLXGq66We8zMmlzZSQ3nkYaBu7WQJ3kAyzzye4b4Zmw7VLiTcbUzf66oFWJ6lDU6Fx4ARJ4Wqiz8NZQfZ883wiANRsBRCmYomqgADyBKj4BLsPCQDdYcrRDgDCCcCEd78DBpj6LSyhaO2vg80CUE6naod+ASTEUh0z7ApQUemrtsxwwEpPe7IA0LvXx59E3wfIh7cX2IfD09PlAXf9u32xla8ur73h9g8=);lineShape=1;sketch=1;hachureGap=4;jiggle=2;curveFitting=1;fontFamily=Architects Daughter;fontSource=https%3A%2F%2Ffonts.googleapis.com%2Fcss%3Ffamily%3DArchitects%2BDaughter;fontSize=20;" vertex="1" parent="1">
          <mxGeometry x="259.2483439417924" y="520.9285589718781" width="43.516374547109535" height="54.94457620418871" as="geometry" />
        </mxCell>
        <mxCell id="LuRM1TjAb78F55fPcYja-99" value="" style="shape=stencil(lVjZctswDPwav2JAgOLxnKb/kZk4tadunHHc6+8LVSNLBKt18ybTywPXYsmdPrwfnt72O+H36+X8df/z+Hw97PTTTuT4ethfjlf72unjTh9ezpf9l8v5++vz9PvtaUSOX9/OP8YVfk3zaqVQx1nCv6eRRLX8Hfg84U/H1zU+UygNfqAQAT7SMDR4pcwAL5RDgxcqCeCZUm7wgeqwjS+FYnJ4AecvyfuH8fqRgl8/ILz48whxBnjbPnt/6jY+V4otPtEA7M2ZkrbnZypowi3+twmWQRVMCJTbjJBIGeyQMnGbcqo0CJjA8wHmCVGogh0GpcRtUgulsD0hDhSl9aqQgjCo+aTdwdwQQV6I5WlrtEUSGW156WwoA1VwpKC+0qyWMii1LgxW2yjQ5vM2s2uBpWAGtFEzbqogCExD7vCAupiiz2wmBlzEJP2BQG2yL/0RD9fnzoAMHGr44PEJOpTZ4yNeXz1e4fqhO4+AFOX53xU+QLwOHo+40RKisxfjU2dvgAmXu/MIjG/p/QntLV0+RHj+Hp/w+p3/UcHz3FlW+AILLHX5UOH6juLuF6R2B0IMxHN41nhAiZbQHb5AfF8wCRdYt/6AC7gLWMSEUjxeYABCh8cM/TG8zC3uhs+kwD+pK8g477jVwqSdUDBD95RrTTKgHpaptD0gl7mKthq9uL7NkNSjiR8n0AJUyCZNapsVNsJYDkm7g8khlEYpzTS1ElyMlMFNE68knSLRGH0lm2hEgisnz6UmS5F+sjA5dZPu6WptZazOxbSl27m7RwCqsHuBw1tUgMF27xB/70DUWDp7GfaaGryYsAHgz6qeW/A9a9SGLd7uccBeY4bScmOE2mNh5iW+AcR30ZILXu7g/b1JERVxR+5pliP/PyGBDPrXiVD3HvHi8AVbXKLDIy4dxUNb9HZBQC8B1hujxwNirLf7zoJH6mzpjSs8emmovsIyroCPvpTcxdvH8izzcjydpled9f/+GceGpicgffwD);lineShape=1;sketch=1;hachureGap=4;jiggle=2;curveFitting=1;fontFamily=Architects Daughter;fontSource=https%3A%2F%2Ffonts.googleapis.com%2Fcss%3Ffamily%3DArchitects%2BDaughter;fontSize=20;" vertex="1" parent="1">
          <mxGeometry x="352.41434464326767" y="101.98543758909295" width="114.14884111748961" height="106.62817146083285" as="geometry" />
        </mxCell>
        <mxCell id="LuRM1TjAb78F55fPcYja-100" value="" style="shape=stencil(lZdJctswEEVPw20XgMbUa8e5h6ssR6wokkuWM9w+YBhKQsP4NHcc/sPQExoDP7ztn153gzNvl/Pp++7X+HzZD/xlcG487nfn8VKeBn4c+OHldN59O5/ej8/z++vTpJyefpx+TiP8njlDPk+QM3+WDzb8+/B1lh/G453cknWV3BLHvpwp+0oeKCcwuqUQ6uE9CQNAyKUKKFOa3AeckK8BZgquD/iy41gBPhDbPhB4sch1z4m86QMxkLcVEDOJ7wMpUqj3kIQssFLOlE0FZIFmlUi53oMkMgiQBiieAXFUfovTAAM/TEDSgEehYQwZo4mAYvtDIoJ4/XBRSTDAGsgYaA0reEn/F3BNodu2uoRtpsBris0mBDs7NGZCdWACmhkSqDMT0IRTxAHbAgGk9fS7cQSvWKkxK2M/xKwBB+rAzSb3AM6h3Jh1ZQZpEmJlD7LVSiKNH8AMnSTFrpbGrmmlNnkNZBx9uZlhJSHy1pRLtec+kdVxa+HYCMSmDCRKIPzKMaRTyFAEQDnouHZEuhqud5SqwzoKnKEc1rYOppBh/+CNzojSDiDPlYbD1QD75UuvpVHxXVoaVPtK0+RU0xQogCWxbvkieRCsZnHqreUTYNISlnWtN0vo9uSs5BFUpCK3Sh6w3Ci53zY6b1u7w3JtGQsXo1rtK9+T60beQDc5r+UgKs3S835arreK2kezdHJ3cpCEG+8sq/LycLsevYyHw3y7uv+vr1Pl03wV48e/);lineShape=1;sketch=1;hachureGap=4;jiggle=2;curveFitting=1;fontFamily=Architects Daughter;fontSource=https%3A%2F%2Ffonts.googleapis.com%2Fcss%3Ffamily%3DArchitects%2BDaughter;fontSize=20;" vertex="1" parent="1">
          <mxGeometry x="324.4339761356425" y="97.4376787258559" width="206.96009331210075" height="127.95003501303609" as="geometry" />
        </mxCell>
        <mxCell id="LuRM1TjAb78F55fPcYja-101" value="" style="shape=stencil(lVjZbhsxDPwavxKSqIN6TtP/CBCnMeragZNef19uDa1X1HoWeXOcGYvXkJR2/PD++vS23wX3/nE5f9//Pjx/vO74yy6Ew+l1fzl86KcdP+744eV82X+7nH+enq9/vz1NyOnTj/Ov6Rf+XHm1kpeJFdzf6zdCkf9/8fWKPx5OS3yhFDt8oVAA3pOEDp/IAbwkir09TAzwpZBPHV4PTPfxWc1lg/fA35SbuTc8u/v4GMn18QmUgD3sqVYTHx/v44Ojavx1LYOrBK8H9AnwQg5YlKj0eK2IDDwOzd6Gjw56PDiQAmWQgUCuT1iOFIDDiUIf0KIR9SBAjkqfYYkkKKLSKr4RamiiWPeg2JpQFTEqikzR9QShCnyImrRsTxBgUlIXzQkRZiGz1Y3UVijrwnTNgJnAFDNWsuksqj1QeKJK751WcUdgkvYW3xOStOJaJ6hJfaajwG4kQr4PK1coNiXUPqyhUgbFp4TS90cVFDQpU+3D6gMxOiEPDSNQQHlQQraEjbAaPWiTQoqb8pAtoYBaUgL7gYB8KK02F4RcISGPJwDFKaGMTmOCsCVUbJKIzYPHUZJiCYwTJ0NpJBzWwpaQsdPZWcJGWGMaCDhKZj5MhI3iG08AzXgq78HphEzKw0wPFJHTqxJFmV5rAg477Ybyrqi3apSCJWzlYdQ0DmscTNqQaBpPwD4UZwmCy1sGQt0Q0KA4v3HC5wjVtplpPqBaqiS9HnQCwcTNE20x49AGOg3FPnE6RTPKQ7Yn6JyGetCm0kcpS6vfe7uG6a26axR0zfB2I9MlkYHidF/KZiNzsLyT3ov6PNQEy1t3PrP+TEsiiJJulVZxzsENK+S2Ey6OQIurL627zwSGy0alanZvvf8hp9uvLZb7CPLm7e1NLw8ReDzHY3E5SejyYLdivfx4aL9p3Ho3QDNd+wmbWVKg2NSDZMqoja97908x4oQLa+RhVkFpTvfnvuhc26nv3s+rwaMSVSWzM3jY41NT4e1+HoD9dbjezgFYx8tQca1E1vFDvy6wryheLD4ie6qtOJ2K6L1G8UZhsG0tWsiNINgB8+CBW/WETwaPCroO80zgc0Gdp90Nz0CRdb6fLR7McEDNFiKwoyg+ssWDgla8EYDADvrpB79NvH64vS6+HI7H6+Pk8v/2NVK/ur5k8uM/);lineShape=1;sketch=1;hachureGap=4;jiggle=2;curveFitting=1;fontFamily=Architects Daughter;fontSource=https%3A%2F%2Ffonts.googleapis.com%2Fcss%3Ffamily%3DArchitects%2BDaughter;fontSize=20;" vertex="1" parent="1">
          <mxGeometry x="254.3044893752558" y="257.8475466553584" width="104.26039719788946" height="90.57437150659416" as="geometry" />
        </mxCell>
        <mxCell id="LuRM1TjAb78F55fPcYja-102" value="" style="shape=stencil(lVjbTmMxDPyavlp27nlm2f9AoizVshQV2Mvfr6OjlMShU/HW5nhOYs/4krPzN6+Pdy/7nePXt9Px5/7P4f7tcee/7Zw7PD/uT4c3/bXztzt/83A87X+cju/P99v/l7tm2X79Ov5ub/i74YRqbCDH/7YFJrctfN/Mnw7Pg3kgqZO5oyCXzQuxn8wTuXzZXIR8mOwrpQTsI2We7MVTrZcB6i7PG0iF/rpMUmaHI3nggveU8gTwjtiBiLI9ki+UPQAkCjMHIVIEUYqO6uxDxKzFammIBYY1RXLzDroifBmQmaJMgLYCeMiROM0A5QEB1Aezg2oJSdVbgK4E4HRJVNwM0BVwpFI7r2eAHglIo6py5iNVoQKOVD2VmQddyQigypnVqisByLtmcrP42koBgErF7FApAGnoY6NWXYkoSrVrcwAkwEM70gLI2AdTZtorMCAEC6ggRfWxzFoS1rqAwlQ6seMWiOpiy0YDoDAVcn7xGmmj2BxtgUM75E+oTqD0tR3EAiKOkixEeMRc6VVlAEB9F0rLDg7UGQXUJUqCiKtLyl3ZQWOyhBW13cbrElaP5br6EECUBjWPVGMn6hLXHHCSLl6jctzCtOi74h3WhLiSctWMJ9ezOq5JinPOL9TVKxmxEAFbxJcBsRM7tIiI4qozmwFETLXr+j8DAjGimpe50pEAgRctNLOYCg5rif19Z0DuJf1zgPQeNYwbGRwpZ1toMm5C2fdKN4xMCfiQCpVZ3zqUFQTw/X3D2IfqRsx9nD8Plnj8jmJrn46u6EYQQj/xMBwXwIMO234Zv1FSe+kJOQz4qEPohcE0Xl1B84ks47ecS9XnAG/7qARc8JcGQRW8P3WOPm5x6L7hrO4cZcAA21TjPpNeMhdjjgbWpe8wvL5xryPDdRhwyzbrGbZytsVazUEPXC5JDKsc2+sFw4snWx3j1qSZ6Kw5OLtQsIFkUNLFFgY1B4EUW6kYlvMvfuS4aq4/Pr6nPByenrbPMeNz+/1Fl7ZvN/72Pw==);lineShape=1;sketch=1;hachureGap=4;jiggle=2;curveFitting=1;fontFamily=Architects Daughter;fontSource=https%3A%2F%2Ffonts.googleapis.com%2Fcss%3Ffamily%3DArchitects%2BDaughter;fontSize=20;" vertex="1" parent="1">
          <mxGeometry x="322.4359184671762" y="297.43436727936773" width="55.66752744099108" height="138.8097551186106" as="geometry" />
        </mxCell>
        <mxCell id="LuRM1TjAb78F55fPcYja-103" value="" style="shape=stencil(lVjLctswDPwaXzF8kzin7X9kJk7jaRpnnPT194Xq0hFX0jq52dKSIoAFsOAu3rw83D7vd8G9vJ6O3/a/DnevD7v4aRfC4elhfzq82q9d/LyLN/fH0/7r6fjj6e78//l2Qk6/vh9/Tjv8Pq+LTlqbVgX35/zEi6v/Hnw54x8PTzN8qBIQHx3BR4lxwAfxSvBOQhrwlw1W8b5I8AM+SyD7ey+tDPgmmZy/io7H97E7YBWfRN2IV2nMXml5dI99kexv3hvPEy0gxD9RXBjwqYon+2dp4M4qifnf6DL6s1TJgSxoUnRYUItUssAcksYFLUkhC2IRHW1QJ5XEIBVJo5PUSESSIGeMsjZxfntByeLhSCqOhKFGUcUvMN41L5rRhpLIgrYw2lOjNYjWMQ6Zlgo7QBu/UDmXdBHp0vo3txZAHIoTzxZcqHaht+dHilJGeifLf1IvzK1x/ELMUjNZ4DDjgtKKWoNkKBmp18B18hmXRhusyEaywOgdxzj42qvyVgKBDT5JIzZEK7pQVgMvkyppNNoKT2R1vokHevcEWcdXJKv2xriFzxXwlTDP8JhuND0NH3H/xOy9pNYbPvL9C5QwyuvJP1BfxDO8+b8A3rHzXNrwDM/bSEN7/zeidbwu+eDZeRR1i/mH75/QP4n5x16jfzLjpy75UPn+HvGN9fG2aGmi3P8L/ivzT+sy5Z34umji/cEmn9H/jeMX/i88v2IDfOb5ldCf8Uo9WfCN71/x/J7H16F/HONbW9p7JR+hs17N9w/hbU7xMHc4KtyjopiwFsMsTkupn8SRL+SCStaGkcxVIHDOsrSQI9WEw5DpebagBSljVtp400ia6UUJzORKIl8wUVdHL5kgYoEz3YoThe+lbJ0ZznW3z1UdyR3T0nnkRuHkNt3YYAax9CPZrwkllGlfZoQu6Grqms0gLeIca1qVCRzjRoICrHSyLgm5MfP0OsFTP/JsCGFFNaVF0c49qdaTNK+4KZIyY/Np8RgIWmdM8Y8LLNRMKOiCfFZpWWHC/W1gZo3cYZ+1uhOIxYtkmAZ+EjSHddXm58YudDDGnjfCjKljZVVZ/vfrjIv/+2S7Hq8kGQauHvHNPjLuH2hfttcBsoD22VC6DOp4R4ct61Ogi3iOTfdv5SN432XrDM8yzKMOMTzxv+EhwfhEbXjwv6P3FIYH/jiqkw0PXdl1ofTu/QtJ9+iR/64btOkfPA8bXCf/I3/Y/d4UX9AI13TRh+5vr+Ptx9tl8f3h8fF81zx/j5fL9uh8MR0//wU=);lineShape=1;sketch=1;hachureGap=4;jiggle=2;curveFitting=1;fontFamily=Architects Daughter;fontSource=https%3A%2F%2Ffonts.googleapis.com%2Fcss%3Ffamily%3DArchitects%2BDaughter;fontSize=20;" vertex="1" parent="1">
          <mxGeometry x="363.3732577677056" y="436.43124265073334" width="47.60654041418911" height="105.92024304640881" as="geometry" />
        </mxCell>
        <mxCell id="LuRM1TjAb78F55fPcYja-104" value="" style="shape=stencil(rZfZbtswEEW/Rq+DWbg+p+l/BIhTG3XjwHG3v++oqhuRtG5QoG+yfEjO3Nmoye5e9w8vu0n59XI+fd59Pzxe9pN9mFQPz/vd+XDxp8nuJ7t7Op13n86nr8+Py++Xh5mcn76cvs07/FjW1Uo1zquUfy5vmIr9fvFx4Y+H5zWfSa3hA1nZ5kslCQ0vRhK3F+RMXJsFmkjT9oKUKXGzwBIF2V4Qfb/2hFDIgEkhkLYnJKYMTjAmbZ3OETotkWqrqusWGJhEseU9jhGINHjgfA7AA0ql5wsIsxFLz9e8zStpbrOCmRg4LDccrsBhz+I8OAAMYrKBz4p4HvgI6oZvCGSQlyEAAgLGFDu+wAAISer5AvaXQc9CGQY46cCDeNlVjbU9QH+jGgZ/gf3epeqgJyywNMTrT9fYKshh/wB5Cz2fYIHdyGdYwDrsX0EHUoptvN4vyDwYVIEDQjwkdAX7c2/QXJCwgCUOgsL9eeiIqOPyNV3WCfEfeREKbcR8BDAQVCPltmRywCnhgrQ172PMQI5GuU651aBkcELSawqsRjGqsqx9WbpXKE1L6Pu0KHS6+qRpTQokYHRX17C/D6HBWuNVkTcepZHzVjoe3W6cL9bxaA7U1AvkiQ4Edb4OPNJnuG3hNuFtWaXn0f3Sx0SvD8qguap6+xXZ70XQx9eQnn+71CofUBnz0FiYEuhb/3wBf5f3h7fb/tPheFw+Ftb/918H/mr5srD7Xw==);lineShape=1;sketch=1;hachureGap=4;jiggle=2;curveFitting=1;fontFamily=Architects Daughter;fontSource=https%3A%2F%2Ffonts.googleapis.com%2Fcss%3Ffamily%3DArchitects%2BDaughter;fontSize=20;" vertex="1" parent="1">
          <mxGeometry x="54.82338232132793" y="48.43562563624562" width="21.742100186578455" height="80.99956501978761" as="geometry" />
        </mxCell>
        <mxCell id="LuRM1TjAb78F55fPcYja-105" value="" style="shape=stencil(lVfZctswDPwavWIIgudzmv5HZuLUnrp2xnGvvy9claoJmevkTbYWFI7FApzk4W379LqZvHs7n45fNz93z+ftJJ8m73eH7ea0O+vTJI+TPLwcT5svp+P3w/P8+/Xpgrw8fTv+uJzwa7bjSFEuVt79nv9x5NzfPz7P+P3ucIX3TNlbfB7jJVN0Hd5TiGN8FEq9P4lYxvgkFHOHL1QAPgcbLwtxHRsUTRD3ATgS8IUaKPcRCxODlLJbUt4sQqTM4BO15XBJElP0wEBj7A1yIg98Kt6WoWSqoG6pUu3rUBMJyGvU16kvhMPUC95a1EIVcTVQMD4tbLkddWPCkiUctCPf90LUEwLCuz6AmKE/K15o0iqgnuKjxfuC8CbeGBt3B/ggFu9hvEYrYoD5ZHLB4gvID1tCqD+IQUwpWryAtmEqq/ML6EumWm3+A8B7cr20KB/+MWR0vlh8Aj2mWm38L7BebLVa8QnWy/KnwHq59vYaD/kZ48ofEK/248ofgXxmZ/OZcT+u6nWn3w3/lQ/Qf171F86PBIsX6H/yFu+gnli+3etHnywe6ZXybdVfaBZrPzqLT/D8j+Frq+ai/zpBgD7ogMk94UqlCALQERb6L1ScUSWMoWiNTWRGc9hwovrWRbdnnopiX4SiQYOmqWrQd3EWCkC1am67ybKtOLzeFMujkNvkGa03qW9MWda820EHq+xaSo/XRu5j4Ewe7UNitYh925BGi68Yg6W9R5u1qXSiDDxab+4BitH6ZhDgsqJ4W7U2TkZ4u/VCsebQtHkpMuwExcdq8BGIqeJDMniHzw/2ZhPR8L6Bd2iZWPnDbZ19Z7zuXn5MPt29+pp6uVbwd/IB3xQ/ehO9j9eH/9fel91+P9+ar9/ba7L+NV+x5fEP);lineShape=1;sketch=1;hachureGap=4;jiggle=2;curveFitting=1;fontFamily=Architects Daughter;fontSource=https%3A%2F%2Ffonts.googleapis.com%2Fcss%3Ffamily%3DArchitects%2BDaughter;fontSize=20;" vertex="1" parent="1">
          <mxGeometry x="64.30380764357938" y="50.43396534056296" width="49.557276171550484" height="24.79159735351118" as="geometry" />
        </mxCell>
        <mxCell id="LuRM1TjAb78F55fPcYja-106" value="" style="shape=stencil(7VjLctswDPwaXzEgwec5Tf8jM3EaT9M447ivvy9UV04A2Uv71kNusrWgCGAXALmSm9fHu5f1KvLrfrf9uv65ud8/ruTTKsbN8+N6t9nr00puV3LzsN2tv+y235/vD79f7ibk9PRt+2Na4dfBLlKRySjy78Mf0ijWv/98PuCfNs8Gn7PBp0ISIZ4NvjAxXD8Vi+/zDs/h7f5rp4zxweBbo9og3u6/58F+it1/1/UDxNv9906M47nAC1xfisdnGP+QPR7FJ1DrHt9BfAIVG//ASghGBv/odbkBp2t2xLN/F3rMlK+KKC8YhDPGJAs8YgRTvIpxTN35W0YMcorpM6dO4pNXWG0QXynYBJdEHeVXA2QdyLikhERiGSF5/uZpg07NikxJ1YEL6kO1OQuBaj9vIJWydToTA86l6pMWZladxGcNeTV4rJnSKEWHF7D/xtSsw1onQQp6nON3TDKs0pNEnIgpJoj3ZXTuC+fwzZU5qJmphNh4Kgs5Y4PuDdLgC74wUgWcm6qUK4wBykANUvYGESRZDYJ4A+hDm0l/uUGq3kAAT9UgLoSGhKMGvAwrilI9kYcEisVkIN6AUeLa/PpC7h0Hsgu53RYNCmunLVo4BUy86LUWUc60PXotC5aOb8hU8Prdrw8nkLf54V3GBkLo2RuUgQsL9XesTRejSZu4gMWFgWAh9IVyIK/bPNW8/wJy+mqD6It8o4KbTrLESFA42tTc+sfh/FzTLNHhIxp0FniBg6CerFyTqsToKNH9JBgE8lSHgmqVrx5AKRQ/q+lkhJpO0OOHNdDZqyAWzRs+9v0MO0KhYlOmw2MDHEr+OKHDaUOT2sfx7ON49p8fz3x3xRcOircJGFxoMAXLiMGFieJtVR9cyLAfGgcXPse3F14oLZr34MKKPd+kDvjmFKb4gvkgHo/377qk4gPQC/uTipR53jmjL7//Aiti8CP4EO/0ONhP9NPuwN/o9TWIZ/RDwSBfWqG7xyM+XH9BOsLrw9tt7MPm6elwmfv+vb+91b8ON79y+wc=);lineShape=1;sketch=1;hachureGap=4;jiggle=2;curveFitting=1;fontFamily=Architects Daughter;fontSource=https%3A%2F%2Ffonts.googleapis.com%2Fcss%3Ffamily%3DArchitects%2BDaughter;fontSize=20;" vertex="1" parent="1">
          <mxGeometry x="126.37104803070338" y="44.06817276964341" width="47.89770320472917" height="44.24680168270447" as="geometry" />
        </mxCell>
        <mxCell id="LuRM1TjAb78F55fPcYja-107" value="" style="shape=stencil(rVjJbhsxDP0aXwlqF89p+h8B4tRGXTtw3O3vS9UYe0SN36BAb174JK6PpDbh6WP38r7deP64nE9ftz/3r5fdJnzaeL8/7rbn/UU/bcLzJjy9nc7bL+fT9+Pr9fv7S5Nsn76dfrQTfl1xTOIayPPv6w8+kIt/f/l8lT/sjzP5RFV6+UIhPJZ3joq5oFIGF7hM7C0gghu8I45WpVgBIFNMPUCtAoDgKOUe4EkEABKV2gGcTEouAyqV0gMiJWB0ZKuSY2IHAI5cH7gM4zxeECgDhZoF3PsIBkFdlKs5n9H5fvr7rr9PIMh1Mu/mIEcVASLl3gCNGUwjR9mUQqWKSkGo9jcEvYEhwPcxSEzRA5U0aCbIDuadGm2yougRQCWvNvRuLXVScjluWot9/ddIEdROzJT7UqjqBpDZKVPtCUP8FMpFQC42lSROLLgIUBNzHwfJlEBqCJPvbZBCHhgtMsV1BkgYkJ0FZBAHBRhKUgCqBwVIn61SIWM0QLUAFGnHSlnDFYiI2xUmEAKzT/+uyQJW/Graldwy/hEgBQsQbEOIAwCr5AajV7xk3So4N6pt6nclHwKM0ZWkYEC0AFhBdSH7EAs0o4cKQkXd3DoURAG00XySLQDxTEuNNAAAfbfkG2woyK2aCMV6CXXRhQKqFMANyzVaVnjD+FXWeGPMPsQbzU1DQay4KQ03CFYpmlng7of/hdAeMfAAyr9yq5h50YEaynmoIZ3VwQ3aSfPYGMEN2quDUclNOb88DeSJJm7NPVNBw/1QpfXWW5cBwbbe4mEc2pTXA3RmQnFwWmK9SjqVeVDWCjCDog7LCdnAdjbWjSahuS9Y4nBlavfLAJ3KTPJRBWTZNqBePpCgaT3Z7YHxNqDsLUYeBU23GdN1PTm0LnkKfVvPcMzV82Ovj24PCBCGLNI9FlqcbZ7qPgEHaTc1/dnWGtBCM1Sz7idoVVcFzKChWYG6elvV+wYXmASo1Jxolj41GjGSHYu9wLxmu2zoCWjyGeZ0lU+gDnjwUCIP9eHhfLSl8/D2ESEXDc1Z5VE7XzqfQcDYUl1jGtA42bK1yqMq4KkfzeRREbClrfZaBYiR7U7fXhmgvWayWJX/t9ezdXn9cH+qe9sfDteXvvn/9mlPf7o+C4bnPw==);lineShape=1;sketch=1;hachureGap=4;jiggle=2;curveFitting=1;fontFamily=Architects Daughter;fontSource=https%3A%2F%2Ffonts.googleapis.com%2Fcss%3Ffamily%3DArchitects%2BDaughter;fontSize=20;" vertex="1" parent="1">
          <mxGeometry x="151.43411122822295" y="52.8620851966956" width="85.29134218597574" height="41.545087012480735" as="geometry" />
        </mxCell>
        <mxCell id="LuRM1TjAb78F55fPcYja-108" value="" style="shape=stencil(rVjbbtswDP2avBLUldJz1/1HgaZrsK4p0uz296ORybEo+2QF9uY4POJFR4eUd+Hu/fnhbb/z/H4+Hb/ufx4ez8+78Gnn/eH1eX86nPVpF+534e7peNp/OR2/vz5efr89TJbT07fjj2mFXxccUw0TyPPv9oIvLz5fzF8OrwvzSJk7c0fsts2dLt/beyoZ2GfKfTiRCghH/06lsy/Ecds+qH2/vvMkIIGYWrwzoFAGgCQUfZ9xIg9SyIVi7yF48n4bIIWS9IBKHiRdpK03FzUTyzagxsaBBkieMvBQC4V+G9Ic5AYvlGY9MXIgScBFbSHPAHUKqFSzzVp8I+86wJNLPSDDrLWuoc+hcKPjOkA99CGVSB4ANIBSe4BQAiGJo9J7qEwBlDULcb9zWgYBVcreCoayBW11qvaI6s444CFlqv0+VCFXAWBMulJFZ9RRTgMA7IMCYg9YEHgL4UcXqExu2IjatHMdoNIaLUBQmdhKmQIy4MYEGDwkHJKhqwIQ+6YcBgDSPq2SG8rqgLoqIAQLQNqngPRRgAzsc5h9Y5U8Kqu3WjmVFVXJW61UQARaOQFGaqAc1kIS5EGTHuhd8JH725eX5wF7SP0+/MMZDaNuYKFxAzcqYh83WVlmjQFjmZAcr5/RG4d65MYNnRmOnMcbwQO/3X8F5Nb5Fy0loDNahhxS691bXc609qrjCfCQM0VDVwd7kAxJlwrHE50FXO+h5Nb31qcN12aLGRAoAXrrerFPWmrrMesTk56HnktyY7BM9gDpTOYQQGzP0qkPaaVOomWYK2EOwxCnAwuDsioRjFamAHuWltW0IB2/BQBESHpAwDKjQ1werhAViYAOtv3G6SUFDUB6DTJ912kLAlwKwcqMC62xrt/kgpXKAscfNw+R8za0qm3dRKMpKpyWYlOg60UXFUhXN+nCazTbzsNwOOQ2/17NC4idrbQwTJXtbY8bO7bM2ZijKwm303Q1j4D8bEcXhkLNdpsYXhXYSiLDq8jAGYZfF7jJ68Icri42dmz+oS81N8314fpR6Onw8nL5prT8335E0leXD1Dh/g8=);lineShape=1;sketch=1;hachureGap=4;jiggle=2;curveFitting=1;fontFamily=Architects Daughter;fontSource=https%3A%2F%2Ffonts.googleapis.com%2Fcss%3Ffamily%3DArchitects%2BDaughter;fontSize=20;" vertex="1" parent="1">
          <mxGeometry x="439.43420677906647" y="182.4363422722456" width="81.1192233449226" height="106.81913500576775" as="geometry" />
        </mxCell>
        <mxCell id="LuRM1TjAb78F55fPcYja-109" value="" style="shape=stencil(lVjJUlsxEPwaX6e0L2eS/AdVQHCFAEXI9vdpxZF5auMm3LxMS7P2zGgXL77dXj5e74L79vz08OX65/7q+XYXP+xC2N/fXj/tn/FpFz/u4sXNw9P156eH7/dXh++Pl0NyfPr68GOc8OuA69VqGKjgfh9+ic5y+fvLpwPgbn+/BURLfgGEbq6dB7Q8/z4Cqrl8HlCbFQJkq1EAvPmyApJFcUMJllejA6wSN+RgtTPACy+lYM0x4J+jXwXEODXeGK1Uwt+ebIDfxA2+matrpGGDuMF7a6tKsVtIwq0zSlM+FStCPk59p3xO1p0wmfOiRMsizNHamqk1WFBpYXk9vzlLQh/vOMit6hDghrQARjWJ2oEJDEDtdGGyt7qq1JslYXNy5jvfoGonIQcC29CqqJ1mYQ1Da5NCXg9D5RuatySMrtna6qWKalKUhL/XG0qyJALXuvm1djJYTaRGB8Osbk3ZogIkc6sNsZgTKg2vEyVVyTBQKRHASYaB0UR6HqymvBQmnxwBk6POybs1DE5m0pAvJF9EIkE+RJKP+vzM+niVRmHS1Yu8amynaedkEkG+ZpZXAUvmE+uv9EmTGjb+0ecXPj8rfyYmI8T3jfNX/3g9WaRJzy/yUeVD4knES/aF/wvLZy0fMsm/kZ+N6yWLfgn5VFl/lT+Bud1b0PKO49vFkDPkub7qG/pw/areNOz1JK/mD8hXPl/mT5zlvZFX8YoznP8pn075zSv/YGpl/YOuL2oyTvbJ98qPjkH1GDQgnwziOmK9TALZNjHVJjFjriFAm/TCR1CJpg804iJIqHsuerR6tRBhv6ENqmRJu9hv/EpbNem5ultc63JUhkjsgjyjkatLZslopGvght9E68bYWFcvYc7sohYwmJLR3unuB7Jqla+IwgifmH4xVMl+MKtrM5iqpS5aX8/HfqD2Us/jEPYPNX8c/bHZb5IymOWxP6l96Jhlm/1MjpjztGOtNb0PFY5xDPKCsQGuGqH8g4pA4H0o6OUjnQKCXKCw6fe1mkdTFkYjRhQFAKraVrz1xirJ543ObQeRVDa0wn1tvCWIQkCdsNFVE33nVEIxdUXDyKW1FpBdqhcCUCsDVDMEgG3oc1w6s72f1BsQRVvdOwMU6QFAO1p0ciMaVjsGKAoDgEZ4AJTVANCOMN77lNGNt8B4bBbnADQ1DIDoVgDQWjcAgsfe/2b5NgAfXp5Ib/Z3d4cX1u3//KSKnw7PsfHjHw==);lineShape=1;sketch=1;hachureGap=4;jiggle=2;curveFitting=1;fontFamily=Architects Daughter;fontSource=https%3A%2F%2Ffonts.googleapis.com%2Fcss%3Ffamily%3DArchitects%2BDaughter;fontSize=20;" vertex="1" parent="1">
          <mxGeometry x="396.2664033119893" y="427.4969113616671" width="37.3011865546689" height="62.16620185355191" as="geometry" />
        </mxCell>
        <mxCell id="LuRM1TjAb78F55fPcYja-113" value="" style="shape=stencil(lVfLctswDPwaXTEEXyDPafofmYlTa+raGcd9/X2hqkxFUtpYN1neJQVgsSAH9/B2fHo9DNa83a6Xr4ef4/PtOLhPg7Xj+Xi4jjd9Gtzj4B5eLtfDl+vl+/l5/v36NCGnp2+XH9MKv2YeG0PGTDRrfv97RSb/ffF5JpzG84KQhab/FnghEYB3xKleP1KK24SUydQbWE8O7JA8ca4IzpGEbYIIhZrgPfm0TYiprFcIIZCAJIVEOVaEGCmCoIMhW3+SRLKA4LVsdVpTLFGtEqyh5CpCzmR5m8C5DVoJwQCCCsG0BFQH9pRyS8gWEJhiLY2FfNe1QbYLOoNKhzarik9Ae5Z8F0EEeEPSfY8HReiaU/EMMmTI1brLiRIqMklq8cED2ZXdF3gH1hdibvEM8sOGfBcACphdie/eHdR9doWgfcChy5GDnRa6pKIiKCF3ncaY0MsayYhT8bc7dcphpTVRI7Al8Xs6LZOrY/6oleNKayKzcGRllxsVN1zaHWzNthVymYx34nVI7Fof4yed1hXQieDBB2kJmgzpzEGyc1IksJhqKEVeSqMs5iYcgzr0ar/TyezQZLZtr+nsR8KO0qZVPc2CHcS0QauDoNkvvvXg97m4jo8lwsUBDJRNOgMz8ACmp53MDR7Zl6gztHgH8IkpmQbP6HzX5Uf7HvRlktZ/Pxj5agu5xQOR5s653o9W6/jQGoUpot08MKc2n2j91NcXHexyd05TxYIRvvvEfwdBH/5fMF7G02m+nyz/by8k+mq+zLjHPw==);lineShape=1;sketch=1;hachureGap=4;jiggle=2;curveFitting=1;fontFamily=Architects Daughter;fontSource=https%3A%2F%2Ffonts.googleapis.com%2Fcss%3Ffamily%3DArchitects%2BDaughter;fontSize=20;" vertex="1" parent="1">
          <mxGeometry x="569.7747847502853" y="61.436182430623376" width="4.790955635849059" height="53.36234526733608" as="geometry" />
        </mxCell>
        <mxCell id="LuRM1TjAb78F55fPcYja-114" value="" style="shape=stencil(lZbdUttADIWfxrdnpNX+XlN4D2YIjYc0YUKg5e3R1mOIlkSd3vnv88pHR8c7yc3L9v55MwV6OR0PT5vf88NpO8mPKYR5v90c55MeTXI7yc3j4bj5eTy87h+W8+f7/mQ/+nV462/4s3CNUEKnAr0vV2JCan+v3C3Abt6fAxmlGCAJWnWAhsoGyIKaXSCJAUoEeyUltGyAqis4QG2IFmiMFh1AVbIltYLE14FCyFYlJgLRdSITJNolGtiRKRGq7ZzqQE4jooBtI2oFO4BUkAVK84EMsrrmBhIHKGMjUkV1VIphXCGqW5zO6W1pFggITklaQK4G0CKzs0KuaMkCGSE53lARrZlU6OB8dG+TXUFbGfyBoGFG6V8zykPjCLFcB87c/OkNWoPh8hI6MBbQofJa3UdysGtbX3FZJh36YUg1GJySeqzYkr6i53KrBeXbjFYnBjQa6wBofHozmhCHoVZZHTN1QP4HkDima09Dx0whrm7+BBKyE0yc1rQ+i43ofHRBtW4tDHHaEMYwzrym7cXn1ar2AxKvKXLteWuLSODg1ZNsYgRfUc0TWz831xQcR4GYkZweBxmBBHEmRz0x/Bm0AY6garpBofHfpgdfO47HebdbNizn98cdil5adjdy+wE=);lineShape=1;sketch=1;hachureGap=4;jiggle=2;curveFitting=1;fontFamily=Architects Daughter;fontSource=https%3A%2F%2Ffonts.googleapis.com%2Fcss%3Ffamily%3DArchitects%2BDaughter;fontSize=20;" vertex="1" parent="1">
          <mxGeometry x="575.8631549603631" y="27.85546056846158" width="2.51462274023811" height="2.522336761604606" as="geometry" />
        </mxCell>
        <mxCell id="LuRM1TjAb78F55fPcYja-115" value="" style="shape=stencil(7VlJbhsxEHyNrg0uze3sJP8wYDkW4liG7Gy/T00UysOmVI6PAXzT0kWyt2L1zCZePd1dP243wT09H/Zftj92N893m/hhE8Lu4W572D3j0yZ+3MSr2/1h+/mw//Zwc/z+eL1YLp++7r8vK/w84lSlhAUV3K/jLyFI9X9++XQE3O8eVoBYJekAiE5cIoAgqYyAKrlcBoQqYQRoEq8EECXUAZCClHgZ4Ks4PwCyk9IIIIprI6BKrZcBVdroQklSiQtJwhjU6iSSA8UewZV9Dsxeo7Wvmdn7sSqqp0lGvNXaexKfIDFa+0DW99Lc2+y1TudhCRY/re9IfFAuU/xZPThJU/wzOT+yP63P6gH/emvvST3APo/12Wh94vzO2ifSw6AEY58lkfMgX2O95SaOdLDa/kqtd+j59ZGwsSC0SOYU8Tc/J9ZKtOLQ8nEi0kJCBBYsYw68pznQ1k98OpJUciJwWhp9PmXlrH3xlkZdP+F5jnM2aeA44nAtosZhlUCKogXRMQfIeyERaknySNMxd+I7DyjSxh0U1xupo9ZsYyLKmTQ+APYm8FJIFrybegeBbsxrtOIYV0S6sTMV8aPXWCKQM7UstVlAYnFF2CcAu2CRuVYtoJHiBsAU3ypw5xHab7z1FswJtblenGCJiNImr5V0BABl2oHR9gIYKaCBRViYYm/JFUB5lHy1AMeKSbvwOAEKpSVkzmcLYGoNgDLtUFiUsoRph8rL1e5QqdzBei5ZQOSA4C2gEJm99OhUSzQPxdLGUnzc6awWQI+Up8ShgRgAdDw6/WqPJnHTmRq5g1B9KVhAZbWhVuk1rmSWDooWEDgLzMXEtOGyg7OAxOL6ZgDo2Mjz0gX1RcI3+tlxOs6959fXHAtr7mpqdZHSHlW7A65qJpegHkz1QQywO6g2q08gaCLZoWrvl1N9JzplFJCEkcX9ijlvD20x2geqHbKfDkSpOGGssgqOaVydZLoP9AqNmKvG5oFmZR7gwEazImmMiTGZ19FllEVgWRY/2qeTfLowaZg5AJMJWz9OKc591nqf5Dfvk/z/NslHG0/Ye8ZB0+SfXpvMzQb51KLnAVjPkBbXCHDZXDXgPZZisKA3DyC1P5I8D8DNYa6aQmV5TL0GTrxYKZHOzItCZzQBQK4WEInTGvoDlxWANRoAOgFYpwFgRAUy09gO0XLLsgOpPZ3mqQVAEoe8+gkQWFjVts/Lo6tLgJIsILMoadfUKwAb/xeA2SFQgQqAmeYBYNP8m98R/AMAH15eSdzu7u+PbzTW/9tXGPjp+PojfvwN);lineShape=1;sketch=1;hachureGap=4;jiggle=2;curveFitting=1;fontFamily=Architects Daughter;fontSource=https%3A%2F%2Ffonts.googleapis.com%2Fcss%3Ffamily%3DArchitects%2BDaughter;fontSize=20;" vertex="1" parent="1">
          <mxGeometry x="581.1993734932364" y="64.10970584358836" width="32.04370034078511" height="49.017038089962284" as="geometry" />
        </mxCell>
        <mxCell id="LuRM1TjAb78F55fPcYja-116" value="" style="shape=stencil(lVjZctswDPwav2JIArye0/Q/MhOn9tSNM47T4+8LjUpZBKv15M1RFhK4WFzc8cP74eltvwvu/Xo5f9//Oj5fDzv+sgvh+HrYX45X/bXjxx0/vJwv+2+X88fr8/z329OEnH79OP+c3vB7touZQp6sgvszP/FCPD/5Ohucjq9rA6ZiDBwF3jaQQk46g0wxATxTrB0+UXLbeC4k3uArwgeS2OErRdnGh0gpWYYyOICv5LgzCIFyAQZM3Bswk/PbBoVyHwIRkgpiRr50+KiUAocWdxdGC0WgCd/4WCJcyQOGNAI9vqgkAvS/x1dlDEXAEfcSqokKINQX8r1Gq6oWeKQhCGy/UEEIuFIVewZBZw4UxJIkIAhJbCZrFCI4dI4k/RlSpQwypwjVPnOi6gKkfvVUegNR4QGWlETfG3AkB1yawtRLNWj5AtKuQ+A0+wpI/yr2DL7RtoU3yePJgyhM+F6rrj3Y9MfiUe7XaBlyTVhbeA4G74DsFP+vOq/wKGJx9N8hPgdJOPLIn0Rs8YwlJ9afhN8fxeBR4o/v98RID6mVthsetb+RH006xGds3fGGr6CWTvHt22u4F1/TzPT92B9n+cmIfxn9R71jzC9P4Q7e5gsaJ8b64CiiAhRba1/pE/kTbR9Q/WN8tO9Hs4Tih/oD8Ylcsv5gfLDvv6N/GfjE+fgpvHdLfVp3AJQBlUpfEYPgEp2thLSLQU0PA6BkKqgTp6bhpRPrfAFUkZNVRdY0ADJNw8xVPOwbOq/U/gylwkCL9q0+DlPpQFNjaZ19NaSh0uvzUCrcnebUSsnqCzFu47lNMwteYLPR1t5HQWc6tEoMUs2ljWAbg7jrc0EHd1QsdNXq36+LgQNBznZM1mUtoUF86UVLJuBuoCHLZnfykFFNxWTaH8N5RR0w9S5TAh7pesk9RwL7qzJi8kDgeqnrsVmeIuwfMdrUL3Be0RHdMOpDq2dbBnbBZygKNajJGgS0jtb/VGB0JTB9oVgDFITJwHxB2pixydJ4DYJZSsMX0LalBmYnVYOEabWDnbYd5JKWOz8YIJZyuwVYu4S0lO3iPh0a1KPP3y7dN9Aft8usl+PpNN+Frf9vL7/00Xxxxo9/AQ==);lineShape=1;sketch=1;hachureGap=4;jiggle=2;curveFitting=1;fontFamily=Architects Daughter;fontSource=https%3A%2F%2Ffonts.googleapis.com%2Fcss%3Ffamily%3DArchitects%2BDaughter;fontSize=20;" vertex="1" parent="1">
          <mxGeometry x="632.1828078062254" y="71.21318291158752" width="56.58046517931598" height="49.916887407970535" as="geometry" />
        </mxCell>
        <mxCell id="LuRM1TjAb78F55fPcYja-117" value="" style="shape=stencil(7VhJchsxDHzNXFHgTp4d5x+ushypokguWdl+HzATjkSMpifKLVW+aekmQaCxkIN7eNs+vW4Gy2/n0/Hz5vvu+bwd3IfB2t1huzntzvJpcI+De3g5njafTsevh+fx++tTRdZPX47f6go/Rp41FENlWf45/uKZbPn9y8eRsN8dekJIPcFTCJDAPSF4cm6ZYAoV0xGiJZ8BIVP974qQDHm0Q6DSEzJTAIc2jlzsCYWYAYEp9ocugbJfJiQqCl/IgjMnykHjAzAo6TALPoITJ3JF4zOIciKe4QvAR0q9Qw0z9GhsEb3eABwgkjEzPNCEhMfODmwQPswCFsGBww2Heoj/E/5rQViIVwHOVICAxB7W+ATsYXLKn0w+Ijz36yexBySAJe4FEScLFwQX+vUDU0IZGdr2jeAiLBKioNxbZB15EAFXmkMmTVsqwKRgKfeaDq1q3JZ0aftPGxADl+ZIsTcIp1hVjF4f5bwo0jmFL0ASNUP6nLFkwHlrxrLCe3DeqxJyISBNX2rUpInWq5bwKSm8w+t7jUdtRvCs8QkcWAIWvcaj9aVR8j3rp1YC/9L+WVJOfXMJ7/T60P+JrErJ1kYW19d4VHOr/VnhDaihgp8lTEH253nCwATLWm+mVYwl/aj4mmbgEj7ohGSsz+wV3iH9lNaCLvi4gi8Kv1JQss5fi/EqvqJn7B+r9Yl6TI2XXj8h/eTmviv8in7uwUsDUP7BBTqxHlKkQ6EZwuv6lqD/vdwdVIf0TbG3e3DRU431MIPlKhD6DHMJjk0yqNvepcGQBTnmdcrLnII0ZPXYUecgcGSnS5zMWQznPu7XL1PXf79oDO8Xjf/uopH1DCc3Z/QgUa/afQBybi5busybPgJ5KgJLVwc1RiRDBuSYibrvRQuTTMoW906V0ooqqRB8n/YrrzBCcOrZBr/z1B2sJjDQaS29vZfkQoSmSzPvllJa0A4yHs8IDhX3onNZCAYduswG3tLEcru682xCWCWEco9JQtD3Vnxo6fF2RkBuFYK/K3D1zbBP0RVp/Msj4xpBPlzeNF92+/34JHr9v34DlZ/G91P3+As=);lineShape=1;sketch=1;hachureGap=4;jiggle=2;curveFitting=1;fontFamily=Architects Daughter;fontSource=https%3A%2F%2Ffonts.googleapis.com%2Fcss%3Ffamily%3DArchitects%2BDaughter;fontSize=20;" vertex="1" parent="1">
          <mxGeometry x="684.6738617662936" y="78.37005397283247" width="36.61397232513718" height="51.206719382971414" as="geometry" />
        </mxCell>
        <mxCell id="LuRM1TjAb78F55fPcYja-118" value="" style="shape=stencil(7VnLTlwxDP2a2Vp5OXHWlP4HEkMZlTII6Ovv63SU4caZe27ZVWp3cMcnie3jR5xdvHq5v3na74J7eX0+ft5/P9y+3u/ih10Ih8f7/fPhVf/axetdvLo7Pu8/PR+/Pt6e/n+6aZLtry/Hb22FHydcEvK1oYL7efrCnpL//eXjCfBweFwCMrEfALpEcgAQKeYRkKkUAHDkiwXkuA6IPB2pUAA6hEocrQ61AkCgPB6JA3leB3gm4RGgSud1QKU8uiEHiuBEiYqM8tJXuHwgqm6QL9ytvCY/mlQ8OXD+RJJG+UwugfUd1dEFoiYAPvOVZARUTxGxwpGMKlTdUyBRvdFBmQ12YLZHkkgZ7JALyRgKJVMFVi3SSbBwMwPeqdWLCWcFIN4F4lFpjR0GxKhsd4i5R9NlQOlE6ICg1EAAjfYwALxqBTKMHikYslJFKkRr1UgpAHlPeXSbowyc0OSTkeeN9cXIo9hX+WLlA9JXgzkYeY854Z2Rd4DWKh8neaRvsOlX5ZF/Q0+dC3mQKlS+Wvs45K9oC47aB62v/LH+ReVG5ZM9f0T2ibN9Ejp/6O48BwysBcoHGf2lBXRD3gRk6AxcJcRo0LABiBRGj8XUC+hlQLIu0LRVEYApmYLpMYmyDeISSJAO0kl8zkKal1CeqzZtVay0d85uoWvATFFtJOgXmN2rrVD6pYA6rj/nCSB4B5N82yFRNqrkRsDCDmueKJPWqPIrgCe7VrxDmHaABBfbWzTDoRwgVmsFJOSISzvAqqA6TDvAtCe9ip0BuGvWn02eaQCk9PkASwDyQ+13lSVgg67FKg2bkTObl1bC/J5DDvWpl6OakSOqbc6bWoh95xheBinWOs1Biu3qZ8AGN94L4BmAdNDemSelccj5yXPQrGL7pOY4nDbeCSi2s9ISAZXOvVNbFKGIdtCL5MglLXPQ09FeGFohRQERbMJPgtO3t0prMwCzgLvQbiBPS7UFYqOhaYAx9TH22194Y7Ad7v8bwz98Y9DOdFxfG3C0frH+ld4n/mGroFf4jJuROg0JoEWLLeQx9xhdvTGYMWSB/byInSoybhVKtSOtfK6Kl8dB1RacUqgAt3G2zYgkynj2aoY1mskScFx0NvA1NFAk+2qZ9Hb5Wxt0mqrs4Lw59uKyGCyiodzUTLXBJVDA2elUwcUmdg4sJnIB1EvpY9NFuRSwvleejqRgPC7Ty34yo2YPk7seKZvpd4HXo8j2LpJy/7I2wTc6JL1+o5F/mgbyDK/C7c0hTDoAYrPrXlpYCZWEBpgeRlANbACxgLixg7cAlLXZ2eZOAYwm2tVO/RlPhlK1fQV7/FZTezAuAKj1StVWzgYA9E5iM1IDoAcquaTDBpemI2X01iG2e2l+ADng/Y9s2wD94+1N7+7w8HB6Elz+bt8A9dPp/TBe/wI=);lineShape=1;sketch=1;hachureGap=4;jiggle=2;curveFitting=1;fontFamily=Architects Daughter;fontSource=https%3A%2F%2Ffonts.googleapis.com%2Fcss%3Ffamily%3DArchitects%2BDaughter;fontSize=20;" vertex="1" parent="1">
          <mxGeometry x="706.1301947252259" y="53.366734303436715" width="52.56282369263272" height="91.0650361874383" as="geometry" />
        </mxCell>
        <mxCell id="LuRM1TjAb78F55fPcYja-119" value="" style="shape=stencil(lVhbctswDDyNfzEgwed3mt4jM3EaT9M44zh93L5QHaoiKG3iP1nGCiCweHEnN6+Pdy/7nefX8+n4ff/rcH9+3MmXnfeH58f96XDWp53c7uTm4Xjafzsd357vL79f7ibJ6enH8ef0hd8XnCPmCeT5z+VF8JTKvzdfL/JPh+eFfKCSrXx02/LOk8QeICQZAArlbAEZAHyiKhYQwjZAEkm1Z2CgISTyvUlSKfltQIxUeq+qTi/bgBTI9SaJo8zbgMxUeoC64d3R6wANnOsB3E61DojkeoATqoAZ2ZPrI13IgTAkjVuvQCgheW5Emw2ilEAQlAXGRZBHGmVOnXyiAs4rxQZZHZQrAAixMUhNRBqYXG+RREijCWCyuZAHPpIhO5M6FWlIVkPWQ6N6oQXG96xQAAhzyMS9SdWRB8yOgUKvoSaYzkl5YDSol0ANy87mf8VuzbWVuBmQm5GrgFJaxZoBsZFlFaAGJKOBYeAUUJMFRODWWtsRlwDgVgXEOJiEAe/MWQAKNslUeqUG8pJjtu1NEaj7TCqyBSRsUwkWUEHlVkAyh/Ct0m4BLJk8eZBBCuARgMmUr9NQKPJVZyjNgKWXMMBdFwcFDNyAkVaTBmo4FLhia+VEV1AFJi8N/IYJUdr3Pp9y7tqkDgMAlg3NUWcBqN5P+TBEmjG96wBAg8kqIKI4rJlUQDVeObRvTemzbvWwo1wN0AZRTZlJcJrRFhRNAtU2n202ud6kRfXc6qO2Q8ye3prIxraIlocQh0PowAIAOpeLmTYCHrECiZlnAp6Y2Ja+hOu9TsHerCd4eFCA9AA1sqB9xlHoC5NOumgylmzZp1taRENctFNfbCvUVqDNKuDabL3OpLlENPkPmDcUe998ts5tafk+R5kErTLJTgHT7gMOrAAbAjyZTMuSOUGGMUuxLVMzK4Q8KGIxNeLPgNx29639J/es0Nld8B6dzB6tfgZh0COaXUCJhUZ7V1rPXwAiGvi8XVonDcBLoa20s7zWC3SdQc5beTSWsO3okzxwEbd7hYU86m1MgQf74ff98H1UjNiurCqPMpltIn9AiWE+V/kEMp/tcjjdJkF73CCPuiC39rK4Gqrw+3GQL4A/bFdPlc+An9dez30srw//7wIfDk9Pl6vE5f/27lBfXe4d5fYv);lineShape=1;sketch=1;hachureGap=4;jiggle=2;curveFitting=1;fontFamily=Architects Daughter;fontSource=https%3A%2F%2Ffonts.googleapis.com%2Fcss%3Ffamily%3DArchitects%2BDaughter;fontSize=20;" vertex="1" parent="1">
          <mxGeometry x="758.4351748953509" y="91.93792472230882" width="53.464950601152395" height="57.40221189452393" as="geometry" />
        </mxCell>
        <mxCell id="LuRM1TjAb78F55fPcYja-120" value="" style="shape=stencil(7VjLUlsxDP2abDW2ZVv2mtL/YIZQMqWECaGPv6/c9N5cy8m5bVddsAvhnNh6HUne8M3r493LdhPc6/Gw/7z9trs/Pm74wyaE3fPj9rA76qcN32745mF/2H467N+e709/v9w1ZPv0Zf+1/cL3E89HSrWxgvvx+xsK6dcXH0/4p92zwccOnyk7gGeS0P9+pRwAIUy/NxHYUUInzBeeCJEp8HVCpeI7fBJociHuLRZPsV7HZyo9vkSK/jo+kc8dvkYK+TqebcRqJYfx3uIZRICJxeIT8A+TH/AC8IFqsPgC/KkJES2+FoTnPh+8c+RABgVygwEVONRTcYMBqGYoZYvPwGBPXCweJdxQAIoPEeG9SaACHaq/7yxeQELP3p7xgRJIOEel908JsOIDSX//rPECBZ/J9QmUMvaPo9obEMMUkssEodxHLOCMaFfqa7KpIjCB0/TvmcDkwAkxUzQER1mAComVLVXihGROk6A32meqgCBz2c5e0kiCOFdHsb8S+0kLLhNUeHqCBi6BTK1z4iwIBcRhISWLbuNBbrQjoiWkFSPEEgqQo7M6zIRIHlvtoyUEkBut3rMlMDqhWAlrJyCji61RJaCmVsVmn3pJQPYpwVSQEiI+IY+RRukqUzYvkgk1QiVUbwkREQqFYAlw1CmUiiXA1NBOIAMBGV3tdNSuhJMv58Fo0B1acx1sEEyoph4Y59IgTC01Vq401LTgE9JQog6LQBgqbiXSZThhpUSTG05AQlYuqIZHVxLb15uQ4RL9O0IpdhJjhkImAyFE2FGy2GVBG7UDRmsbNcqnG5MAt2qjNoHTvlvAlTjb9NYT4PwsduDWiQ7Nw2qiiQM72IH8vHAtKw4FblLexUQmyKtTVOcVzMGVTVeY3kU6UWa4MuRhYkUT9/sK9r6C/dcrWLAzZOVp1risQlO/W7xZoKk22Q1JPGweqoqm4AXK6LBbNEEB99flxvUOVclCF/Levrr4lQh7WzMrD1+aon0IVh7WvB0GdQtF+DA58IzPqGLmseyMR69Sijca7eBc5+dZ94x3oBW3/VUsHj8kGk1fxYu1F94n2sVuxd5oS37Fn9Eu5CvxipPi/2E+/MNDLsbrh/Or8cPu6en06Lz8v31l1q9OL9R8+xM=);lineShape=1;sketch=1;hachureGap=4;jiggle=2;curveFitting=1;fontFamily=Architects Daughter;fontSource=https%3A%2F%2Ffonts.googleapis.com%2Fcss%3Ffamily%3DArchitects%2BDaughter;fontSize=20;" vertex="1" parent="1">
          <mxGeometry x="807.4846434664032" y="100.43808922214623" width="41.688453395284796" height="45.091026360618685" as="geometry" />
        </mxCell>
        <mxCell id="LuRM1TjAb78F55fPcYja-121" value="" style="shape=stencil(lVjbcloxDPwaXjWW73pO0//ITEjDNA0ZQm9/X7mMAenAMrydkD3HlnZXkr1KD5+vTx/rVQyf+932+/r35nn/ukpfVjFu3l/Xu81en1bpcZUeXra79bfd9uf78+Hvj6eBHE8/tr/GF/4c3hOh0MZbMfw9/JKJ+f8PXw/4t837OZ5JksEnigDfAwWLjxTydXwLlKvBM+V2HV+EYnH4BPaTGwWP7/06PmXKPt4C9qPh1WDwlXq8judIudv94A0Vzxd3ahUsQMniY6MGEsRUs423U4H7KZavEqgJDlhsghJkTHdULAPtmIPLlEVim9JeiAEHOVNg84JEkgBirpTdCziptVO0WRJlDdlAk25lJIUaoKHXmfVj0EdnXDZypG6F0QQKSSoVR5xGlcALjYq1WinUQdBjhWhrUaIMiJPsi0UU6DbNCdsVuBEDtWr5YstDh1LSHIrVXiMBLAy8Eze1G/ji8AWkdJRfj0+AZMVHdvgInKD47PGofSjelZcGvax4r9JJyGU8U/D5h/tnin4/CeRf8cnjC/BAX5Rf5fcGPjq8YHxc6BPln3077rBKjPyzwydksDCbxRke6zMVvx9U5tSP1ceL9RP8/gPIz/CX57ffia83xiHvl4zx7P17g6+FPhnpJ/j23aaBruoheDyqn6o3r2dG9WehZ40Xf/8uvCzHywoNqW23266nLaaivqqGtStoE0tohU5iV9A2iTw/VrAe00aMZlJtk+xMH2ZZupxVLVK2amneGMiiLWLQXi6AZ92x8zEHtQaauY6zw9kIhQZlTbuzjiQSULsS++FA50YBYophEns2maIhTUd7N5nq7NsBEXkWt6M0GNo5eDfo8I7K0THlZ4eDBEhInmYdnwQdJnhOMyeaYYb0+OR0UebUee145iKOMICssrQZDfh0I7MdnfBIpW1RT9U4uP+5/euAhOpX9KJmPFLLTMcpP/D74k9nEZdHLYZuAocDuOK73w+sdTL1dTp+o/4ki/k7zQHvskDDwgIJNuSxQHN4JKCB999HBz/FNx8AqnKDAFuDMhToILh6POodaoC77ofuvU+6ideH0+XVy+bt7XD3df5/f9mlPx0uytLjPw==);lineShape=1;" vertex="1" parent="1">
          <mxGeometry x="677.3682594504976" y="392.3173128782046" width="69.19768498103576" height="78.92617493076159" as="geometry" />
        </mxCell>
        <mxCell id="LuRM1TjAb78F55fPcYja-122" value="" style="shape=stencil(lVjJctswDP0aXTHcQZ7T9D8yE6fxNI0zjrv9fcF6qIig9BTfZBmPxPKwafJ3788Pb4fJmffL+fT98Pv4eHme/JfJuePr8+F8vMjT5O8nf/d0Oh++nU8/Xx+vv98eqmR9+nH6VU/4c8VxJpsqypm/1zfOUDT/33y9Al6Or0tAWAGEsg1ITNYNAN4GRCZve4Cl4LYBoRBzD/BkPACIib4HRCpxG+BF49wB5I3P2wAxkfsbfKIA3Got5dIBgqcCbIhkTScfHRULLiDfyydHDEy2+nx2lMD5sfmjyWdLnMD5wqPeQ7lQAAY7cWDoAEV8ADSSKJdepZIpIBMSxZ5HpcAbWEzsmVpSu3MVkEOL6Qxw5ICXSqAYey9FMiB5xMTS28CROAAAU+rdmgIxYGqxOnmEeRl4SYhQ+hs+IrPu1rk+zOlZcC7ERuUGsAyN9oVin22p6bjFPRU3QxlzlYuSR/pUeaPkUbKJfEpKHpXUKp+VvN/RPyp5Bzgh8pmVvAE9wXGrzwt5UOFF3lktj/RhXY12z4/hNv0H/1ssz/p8j/Xhm+Ir8m66gT+iv/Y/Iz5wa/Gf5D83ei3kUbuUGUHzLSN/Jl3aRR40s8rPwV6cL6zlEyjTNb80/yOK74o8HCfSGF+H68lgr8X6DP406PyVeO3lo9bfYH4OfDPI/zfKSwNyvb2JHOBPnQx6f0qD2ZkM9AxbyAONsvTQPuMDHqtlcFAlS9owqhEyGShOS6NHRcKaOajzLJFgGZWBTIVZphU0S8jfvo9b8XC8Eb8WNXFxc9xm5HrAwqwtbiSlUyGHioXsDr2bxA+o2lmvq2MRlQD9QqPO7FbXpvNV+TFuMruDuM3FZLEbIO4NK2ClHigXstyYYbnxKP/n9J3Xp9gmmHVAafvbIt8iAAQzbKURtnxZMtUK6CQIwGhZY62aYuct8pOLsi2wi4yreAWgqjQs+wJAgRaAKmP7N4Q4AAC1BaB2LgEgrgogDQDGKqnZSwAZ38DDDWg7GAE77WdUqfZntBENRru5g33SrTsTxhi4ylZstO5wuGHd/qVpHyAPHx+2no4vL9fvYsv/9YcweXX9iObv/wE=);lineShape=1;" vertex="1" parent="1">
          <mxGeometry x="615.774786477306" y="502.58966412523546" width="91.13060835313127" height="112.06697486263784" as="geometry" />
        </mxCell>
      </root>
    </mxGraphModel>
  </diagram>
</mxfile>
